<?xml version="1.0" encoding="UTF-8"?>
<svg width="280px" height="150px" viewBox="0 0 280 150" version="1.1" xmlns="http://www.w3.org/2000/svg" xmlns:xlink="http://www.w3.org/1999/xlink" style="background: #FFFFFF;">
    <!-- Generator: Sketch 49.2 (51160) - http://www.bohemiancoding.com/sketch -->
    <title>Untitled</title>
    <desc>Created with Sketch.</desc>
    <defs></defs>
    <g id="logo-gdgcuiaba" stroke="none" stroke-width="1" fill="none" fill-rule="evenodd">
        <g id="MainLogo" transform="translate(50.000000, 42.000000)">
            <polygon id="Fill-15" fill="#2BE3AD" points="24 57 24 56 23 57"></polygon>
            <polygon id="Fill-17" fill="#2BE3AD" points="0 9 0 10 1 9"></polygon>
            <polygon id="Fill-19" fill="#2BE3AD" points="24 11 0 34.6180456 0 36 24 12.3819544"></polygon>
            <polygon id="Fill-21" fill="#2BE3AD" points="24 15 0 38.6185701 0 40 24 16.3819544"></polygon>
            <polygon id="Fill-23" fill="#2BE3AD" points="24 20 0 43.6180746 0 45 24 21.3819254"></polygon>
            <polygon id="Fill-25" fill="#2BE3AD" points="24 25 0 48.6180456 0 50 24 26.3819544"></polygon>
            <polygon id="Fill-27" fill="#2BE3AD" points="24 30 0 53.6185701 0 55 24 31.3819544"></polygon>
            <polygon id="Fill-29" fill="#2BE3AD" points="24 35 2 57 3.41657907 57 24 36.4167359"></polygon>
            <polygon id="Fill-31" fill="#2BE3AD" points="24 40 7 57 8.41680114 57 24 41.416846"></polygon>
            <polygon id="Fill-33" fill="#2BE3AD" points="24 45 12 57 13.4179714 57 24 46.4185097"></polygon>
            <polygon id="Fill-35" fill="#2BE3AD" points="18.4208215 57 24 51.4208215 24 50 17 57"></polygon>
            <polygon id="Fill-37" fill="#2BE3AD" points="5.57720503 9 0 14.577205 0 16 7 9"></polygon>
            <polygon id="Fill-39" fill="#2BE3AD" points="23.4381654 57 24 56.4387114 24 55 22 57"></polygon>
            <polygon id="Fill-41" fill="#2BE3AD" points="0.55473251 9 0 9.55473251 0 11 2 9"></polygon>
            <polygon id="Fill-43" fill="#2BE3AD" points="20.5832478 9 0 29.5830909 0 31 22 9"></polygon>
            <polygon id="Fill-45" fill="#2BE3AD" points="15.5824364 9 0 24.5818539 0 26 17 9"></polygon>
            <polygon id="Fill-47" fill="#2BE3AD" points="10.5809464 9 0 19.5805062 0 21 12 9"></polygon>
            <polygon id="Fill-49" fill="#2BE3AD" points="30.5450127 67 27 66.2224084 42.4544409 0 46 0.777061856"></polygon>
            <path d="M69,18 C60.7159298,18 54,24.7153937 54,33 C54,41.2846063 60.7159298,48 69,48 C77.2840702,48 84,41.2846063 84,33 C84,24.7153937 77.2840702,18 69,18 M69,20.4999106 C75.8923121,20.4999106 81.4995532,26.1076879 81.4995532,33 C81.4995532,39.8923121 75.8923121,45.5000894 69,45.5000894 C62.1076879,45.5000894 56.4999106,39.8923121 56.4999106,33 C56.4999106,26.1076879 62.1076879,20.4999106 69,20.4999106" id="Fill-51" fill="#FECD2B"></path>
            <path d="M68.4997373,8 C54.9686907,8 44,18.9692161 44,32.5002627 C44,46.0307839 54.9686907,57 68.4997373,57 C82.0307839,57 93,46.0307839 93,32.5002627 C93,18.9692161 82.0307839,8 68.4997373,8 M68.4997373,10.4499212 C80.6584498,10.4499212 90.5500788,20.3415502 90.5500788,32.5002627 C90.5500788,44.6584498 80.6584498,54.5500788 68.4997373,54.5500788 C56.3410248,54.5500788 46.4499212,44.6584498 46.4499212,32.5002627 C46.4499212,20.3415502 56.3410248,10.4499212 68.4997373,10.4499212" id="Fill-53" fill="#4A66F8"></path>
            <path d="M68,28 C65.238902,28 63,30.238902 63,33.0005361 C63,35.7621703 65.238902,38 68,38 C70.761098,38 73,35.7621703 73,33.0005361 C73,30.238902 70.761098,28 68,28 M68,30.5005361 C69.3784045,30.5005361 70.5,31.6215955 70.5,33.0005361 C70.5,34.3784045 69.3784045,35.5 68,35.5 C66.6215955,35.5 65.5,34.3784045 65.5,33.0005361 C65.5,31.6215955 66.6215955,30.5005361 68,30.5005361" id="Fill-55" fill="#FF6001"></path>
        </g>
        <g id="18" transform="translate(166.000000, 46.000000)">
            <path d="M45.5,29 C51.2988544,29 56,24.2988544 56,18.5 C56,12.6997978 51.2988544,8 45.5,8 C39.7011456,8 35,12.6997978 35,18.5 C35,24.2988544 39.7011456,29 45.5,29 M45.5,26.1492588 C41.2816712,26.1492588 37.8507412,22.7179919 37.8507412,18.5 C37.8507412,14.2816712 41.2816712,10.8493935 45.5,10.8493935 C49.7179919,10.8493935 53.1492588,14.2816712 53.1492588,18.5 C53.1492588,22.7179919 49.7179919,26.1492588 45.5,26.1492588" id="Fill-180" fill="#FF6001"></path>
            <path d="M49,18.5 C49,20.4320876 47.4334155,22 45.5,22 C43.5662525,22 42,20.4320876 42,18.5 C42,16.5665845 43.5662525,15 45.5,15 C47.4334155,15 49,16.5665845 49,18.5" id="Fill-181" fill="#FECD2B"></path>
            <path d="M46.0001707,29.2008877 C40.0448419,29.2008877 35.199522,34.0448419 35.199522,40.0001707 C35.199522,45.9551581 40.0448419,50.800478 46.0001707,50.800478 C51.9551581,50.800478 56.800478,45.9551581 56.800478,40.0001707 C56.800478,34.0448419 51.9551581,29.2008877 46.0001707,29.2008877 M46.0001707,58 C36.0742813,58 28,49.9257187 28,40.0001707 C28,30.0756471 36.0742813,22 46.0001707,22 C55.9243529,22 64,30.0756471 64,40.0001707 C64,49.9257187 55.9243529,58 46.0001707,58" id="Fill-182" fill="#2BE3AD"></path>
            <polygon id="Fill-183" fill="#FF6001" points="0 57 22 57 22 50 0 50"></polygon>
            <polygon id="Fill-184" fill="#4A66F8" points="7 48 14 48 14 15 7 15"></polygon>
            <path d="M10.4990042,0 L6.99933612,0 C6.99933612,4.14196623 3.86679628,7.5 0,7.5 L0,15 C7.73193285,15 14,8.28499953 14,0 L10.4990042,0 Z" id="Fill-185" fill="#2BE3AD"></path>
            <path d="M46.0001707,36 C55.9404004,36 64,27.9401354 64,18 C64,8.05849883 55.9404004,0 46.0001707,0 C36.0582338,0 28,8.05849883 28,18 C28,27.9401354 36.0582338,36 46.0001707,36 M46.0001707,33.1111364 C37.6667394,33.1111364 30.888891,26.3330109 30.888891,18 C30.888891,9.66835486 37.6667394,2.88749787 46.0001707,2.88749787 C54.3318949,2.88749787 61.1114504,9.66835486 61.1114504,18 C61.1114504,26.3330109 54.3318949,33.1111364 46.0001707,33.1111364" id="Fill-186" fill="#4A66F8"></path>
        </g>
    </g>
</svg>