<?xml version="1.0" encoding="UTF-8"?>
<svg width="183px" height="171px" viewBox="0 0 183 171" version="1.1" xmlns="http://www.w3.org/2000/svg" xmlns:xlink="http://www.w3.org/1999/xlink">
    <!-- Generator: Sketch 49.2 (51160) - http://www.bohemiancoding.com/sketch -->
    <title>logo-gdgcuiaba2</title>
    <desc>Created with Sketch.</desc>
    <defs></defs>
    <g id="Page-1" stroke="none" stroke-width="1" fill="none" fill-rule="evenodd">
        <g id="kkkkkk2" transform="translate(8.000000, 12.000000)">
            <g id="Group">
                <g id="MainLogo">
                    <polygon id="Fill-15" fill="#2BE3AD" points="17.6785714 42.5526316 17.6785714 41.2631579 16.5 42.5526316"></polygon>
                    <polygon id="Fill-17" fill="#2BE3AD" points="0 6.44736842 0 7.73684211 1.17857143 6.44736842"></polygon>
                    <polygon id="Fill-19" fill="#2BE3AD" points="16.5 7.73684211 0 24.7915572 0 25.7894737 16.5 8.73475862"></polygon>
                    <polygon id="Fill-21" fill="#2BE3AD" points="16.5 11.6052632 0 28.6603569 0 29.6578947 16.5 12.6031797"></polygon>
                    <polygon id="Fill-23" fill="#2BE3AD" points="16.5 14.1842105 0 31.2389465 0 32.2368421 16.5 15.1821061"></polygon>
                    <polygon id="Fill-25" fill="#2BE3AD" points="16.5 18.0526316 0 35.1073466 0 36.1052632 16.5 19.0505481"></polygon>
                    <polygon id="Fill-27" fill="#2BE3AD" points="16.5 21.9210526 0 38.9761464 0 39.9736842 16.5 22.9189691"></polygon>
                    <polygon id="Fill-29" fill="#2BE3AD" points="16.5 25.7894737 1.17857143 41.2631579 2.16511757 41.2631579 16.5 26.7859339"></polygon>
                    <polygon id="Fill-31" fill="#2BE3AD" points="17.6785714 29.6578947 5.89285714 42.5526316 6.87509323 42.5526316 17.6785714 30.7325921"></polygon>
                    <polygon id="Fill-33" fill="#2BE3AD" points="16.5 33.5263158 8.25 42.5526316 9.22485532 42.5526316 16.5 34.5933088"></polygon>
                    <polygon id="Fill-35" fill="#2BE3AD" points="12.981814 41.2631579 17.6785714 37.1521842 17.6785714 36.1052632 11.7857143 41.2631579"></polygon>
                    <polygon id="Fill-37" fill="#2BE3AD" points="4.69509607 6.44736842 0 10.5568879 0 11.6052632 5.89285714 6.44736842"></polygon>
                    <polygon id="Fill-39" fill="#2BE3AD" points="16.1689189 41.2631579 16.5 40.9012745 16.5 39.9736842 15.3214286 41.2631579"></polygon>
                    <polygon id="Fill-41" fill="#2BE3AD" points="0.326895944 6.44736842 0 6.80502491 0 7.73684211 1.17857143 6.44736842"></polygon>
                    <polygon id="Fill-43" fill="#2BE3AD" points="14.3347618 6.44736842 0 20.9244707 0 21.9210526 15.3214286 6.44736842"></polygon>
                    <polygon id="Fill-45" fill="#2BE3AD" points="10.8029496 6.44736842 0 18.2664217 0 19.3421053 11.7857143 6.44736842"></polygon>
                    <polygon id="Fill-47" fill="#2BE3AD" points="7.27440065 6.44736842 0 14.4059509 0 15.4736842 8.25 6.44736842"></polygon>
                    <polygon id="Fill-49" fill="#2BE3AD" points="21.2760143 49 18.8571429 48.4313136 29.4021843 0 31.8214286 0.568298969"></polygon>
                    <path d="M49.5,12.8947368 C43.6419789,12.8947368 38.8928571,17.8016868 38.8928571,23.8552632 C38.8928571,29.9088395 43.6419789,34.8157895 49.5,34.8157895 C55.3580211,34.8157895 60.1071429,29.9088395 60.1071429,23.8552632 C60.1071429,17.8016868 55.3580211,12.8947368 49.5,12.8947368 M49.5,14.7214259 C54.3738493,14.7214259 58.3389698,18.8190386 58.3389698,23.8552632 C58.3389698,28.8914877 54.3738493,32.9891004 49.5,32.9891004 C44.6261507,32.9891004 40.6606511,28.8914877 40.6606511,23.8552632 C40.6606511,18.8190386 44.6261507,14.7214259 49.5,14.7214259" id="Fill-51" fill="#FECD2B"></path>
                    <path d="M48.321239,5.15789474 C38.5575829,5.15789474 30.6428571,13.240475 30.6428571,23.2107199 C30.6428571,33.1805776 38.5575829,41.2631579 48.321239,41.2631579 C58.0848951,41.2631579 66,33.1805776 66,23.2107199 C66,13.240475 58.0848951,5.15789474 48.321239,5.15789474 M48.321239,6.96309982 C57.094654,6.96309982 64.2321997,14.2516686 64.2321997,23.2107199 C64.2321997,32.169384 57.094654,39.4579528 48.321239,39.4579528 C39.547824,39.4579528 32.4106574,32.169384 32.4106574,23.2107199 C32.4106574,14.2516686 39.547824,6.96309982 48.321239,6.96309982" id="Fill-53" fill="#4A66F8"></path>
                    <path d="M48.3214286,20.6315789 C46.3689378,20.6315789 44.7857143,22.3637821 44.7857143,24.5004148 C44.7857143,26.6370475 46.3689378,28.3684211 48.3214286,28.3684211 C50.2739193,28.3684211 51.8571429,26.6370475 51.8571429,24.5004148 C51.8571429,22.3637821 50.2739193,20.6315789 48.3214286,20.6315789 M48.9107143,23.2105263 C49.8854432,23.2105263 50.6785714,24.0779653 50.6785714,25.1449443 C50.6785714,26.2110936 49.8854432,27.0789474 48.9107143,27.0789474 C47.9359854,27.0789474 47.1428571,26.2110936 47.1428571,25.1449443 C47.1428571,24.0779653 47.9359854,23.2105263 48.9107143,23.2105263" id="Fill-55" fill="#FF6001"></path>
                </g>
                <g id="18" transform="translate(105.000000, 4.000000)">
                    <path d="M33.3947368,21.3913043 C37.7208664,21.3913043 41.2280702,17.999277 41.2280702,13.8152174 C41.2280702,9.6301854 37.7208664,6.23913043 33.3947368,6.23913043 C29.0686073,6.23913043 25.5614035,9.6301854 25.5614035,13.8152174 C25.5614035,17.999277 29.0686073,21.3913043 33.3947368,21.3913043 M33.3947368,19.3344031 C30.2477296,19.3344031 27.688147,16.8586339 27.688147,13.8152174 C27.688147,10.7715578 30.2477296,8.29505931 33.3947368,8.29505931 C36.5414927,8.29505931 39.1013267,10.7715578 39.1013267,13.8152174 C39.1013267,16.8586339 36.5414927,19.3344031 33.3947368,19.3344031" id="Fill-180" fill="#FF6001"></path>
                    <path d="M35.4561404,12.923913 C35.4561404,14.1539688 34.3489303,15.1521739 32.9824561,15.1521739 C31.6157474,15.1521739 30.5087719,14.1539688 30.5087719,12.923913 C30.5087719,11.6930118 31.6157474,10.6956522 32.9824561,10.6956522 C34.3489303,10.6956522 35.4561404,11.6930118 35.4561404,12.923913" id="Fill-181" fill="#FECD2B"></path>
                    <path d="M33.3948659,20.3223765 C28.8935428,20.3223765 25.2312176,23.8003122 25.2312176,28.0762095 C25.2312176,32.3518617 28.8935428,35.830778 33.3948659,35.830778 C37.8959309,35.830778 41.558256,32.3518617 41.558256,28.0762095 C41.558256,23.8003122 37.8959309,20.3223765 33.3948659,20.3223765 M33.3948659,41 C25.8924027,41 19.7894737,35.202705 19.7894737,28.0762095 C19.7894737,20.9504495 25.8924027,15.1521739 33.3948659,15.1521739 C40.8960387,15.1521739 47,20.9504495 47,28.0762095 C47,35.202705 40.8960387,41 33.3948659,41" id="Fill-182" fill="#2BE3AD"></path>
                    <polygon id="Fill-183" fill="#FF6001" points="0 39.2173913 16.4912281 39.2173913 16.4912281 34.7608696 0 34.7608696"></polygon>
                    <polygon id="Fill-184" fill="#4A66F8" points="4.94736842 33.8695652 9.89473684 33.8695652 9.89473684 10.6956522 4.94736842 10.6956522"></polygon>
                    <path d="M7.42034881,0 L4.94689921,0 C4.94689921,2.95340201 2.73292369,5.34782609 0,5.34782609 L0,10.6956522 C5.46467435,10.6956522 9.89473684,5.90756488 9.89473684,0 L7.42034881,0 Z" id="Fill-185" fill="#2BE3AD"></path>
                    <path d="M33.3948659,25.8478261 C40.9081682,25.8478261 47,20.0608823 47,12.923913 C47,5.78596323 40.9081682,0 33.3948659,0 C25.8802732,0 19.7894737,5.78596323 19.7894737,12.923913 C19.7894737,20.0608823 25.8802732,25.8478261 33.3948659,25.8478261 M33.3948659,23.773636 C27.0960589,23.773636 21.973036,18.9069746 21.973036,12.923913 C21.973036,6.94183208 27.0960589,2.07320952 33.3948659,2.07320952 C39.6923825,2.07320952 44.8166957,6.94183208 44.8166957,12.923913 C44.8166957,18.9069746 39.6923825,23.773636 33.3948659,23.773636" id="Fill-186" fill="#4A66F8"></path>
                </g>
            </g>
        </g>
        <g id="kkkkkk2" transform="translate(8.000000, 122.000000)">
            <g id="Group">
                <g id="MainLogo">
                    <polygon id="Fill-15" fill="#2BE3AD" points="17.6785714 42.5526316 17.6785714 41.2631579 16.5 42.5526316"></polygon>
                    <polygon id="Fill-17" fill="#2BE3AD" points="0 6.44736842 0 7.73684211 1.17857143 6.44736842"></polygon>
                    <polygon id="Fill-19" fill="#2BE3AD" points="16.5 7.73684211 0 24.7915572 0 25.7894737 16.5 8.73475862"></polygon>
                    <polygon id="Fill-21" fill="#2BE3AD" points="16.5 11.6052632 0 28.6603569 0 29.6578947 16.5 12.6031797"></polygon>
                    <polygon id="Fill-23" fill="#2BE3AD" points="16.5 14.1842105 0 31.2389465 0 32.2368421 16.5 15.1821061"></polygon>
                    <polygon id="Fill-25" fill="#2BE3AD" points="16.5 18.0526316 0 35.1073466 0 36.1052632 16.5 19.0505481"></polygon>
                    <polygon id="Fill-27" fill="#2BE3AD" points="16.5 21.9210526 0 38.9761464 0 39.9736842 16.5 22.9189691"></polygon>
                    <polygon id="Fill-29" fill="#2BE3AD" points="16.5 25.7894737 1.17857143 41.2631579 2.16511757 41.2631579 16.5 26.7859339"></polygon>
                    <polygon id="Fill-31" fill="#2BE3AD" points="17.6785714 29.6578947 5.89285714 42.5526316 6.87509323 42.5526316 17.6785714 30.7325921"></polygon>
                    <polygon id="Fill-33" fill="#2BE3AD" points="16.5 33.5263158 8.25 42.5526316 9.22485532 42.5526316 16.5 34.5933088"></polygon>
                    <polygon id="Fill-35" fill="#2BE3AD" points="12.981814 41.2631579 17.6785714 37.1521842 17.6785714 36.1052632 11.7857143 41.2631579"></polygon>
                    <polygon id="Fill-37" fill="#2BE3AD" points="4.69509607 6.44736842 0 10.5568879 0 11.6052632 5.89285714 6.44736842"></polygon>
                    <polygon id="Fill-39" fill="#2BE3AD" points="16.1689189 41.2631579 16.5 40.9012745 16.5 39.9736842 15.3214286 41.2631579"></polygon>
                    <polygon id="Fill-41" fill="#2BE3AD" points="0.326895944 6.44736842 0 6.80502491 0 7.73684211 1.17857143 6.44736842"></polygon>
                    <polygon id="Fill-43" fill="#2BE3AD" points="14.3347618 6.44736842 0 20.9244707 0 21.9210526 15.3214286 6.44736842"></polygon>
                    <polygon id="Fill-45" fill="#2BE3AD" points="10.8029496 6.44736842 0 18.2664217 0 19.3421053 11.7857143 6.44736842"></polygon>
                    <polygon id="Fill-47" fill="#2BE3AD" points="7.27440065 6.44736842 0 14.4059509 0 15.4736842 8.25 6.44736842"></polygon>
                    <polygon id="Fill-49" fill="#2BE3AD" points="21.2760143 49 18.8571429 48.4313136 29.4021843 0 31.8214286 0.568298969"></polygon>
                    <path d="M49.5,12.8947368 C43.6419789,12.8947368 38.8928571,17.8016868 38.8928571,23.8552632 C38.8928571,29.9088395 43.6419789,34.8157895 49.5,34.8157895 C55.3580211,34.8157895 60.1071429,29.9088395 60.1071429,23.8552632 C60.1071429,17.8016868 55.3580211,12.8947368 49.5,12.8947368 M49.5,14.7214259 C54.3738493,14.7214259 58.3389698,18.8190386 58.3389698,23.8552632 C58.3389698,28.8914877 54.3738493,32.9891004 49.5,32.9891004 C44.6261507,32.9891004 40.6606511,28.8914877 40.6606511,23.8552632 C40.6606511,18.8190386 44.6261507,14.7214259 49.5,14.7214259" id="Fill-51" fill="#FECD2B"></path>
                    <path d="M48.321239,5.15789474 C38.5575829,5.15789474 30.6428571,13.240475 30.6428571,23.2107199 C30.6428571,33.1805776 38.5575829,41.2631579 48.321239,41.2631579 C58.0848951,41.2631579 66,33.1805776 66,23.2107199 C66,13.240475 58.0848951,5.15789474 48.321239,5.15789474 M48.321239,6.96309982 C57.094654,6.96309982 64.2321997,14.2516686 64.2321997,23.2107199 C64.2321997,32.169384 57.094654,39.4579528 48.321239,39.4579528 C39.547824,39.4579528 32.4106574,32.169384 32.4106574,23.2107199 C32.4106574,14.2516686 39.547824,6.96309982 48.321239,6.96309982" id="Fill-53" fill="#4A66F8"></path>
                    <path d="M48.3214286,20.6315789 C46.3689378,20.6315789 44.7857143,22.3637821 44.7857143,24.5004148 C44.7857143,26.6370475 46.3689378,28.3684211 48.3214286,28.3684211 C50.2739193,28.3684211 51.8571429,26.6370475 51.8571429,24.5004148 C51.8571429,22.3637821 50.2739193,20.6315789 48.3214286,20.6315789 M48.9107143,23.2105263 C49.8854432,23.2105263 50.6785714,24.0779653 50.6785714,25.1449443 C50.6785714,26.2110936 49.8854432,27.0789474 48.9107143,27.0789474 C47.9359854,27.0789474 47.1428571,26.2110936 47.1428571,25.1449443 C47.1428571,24.0779653 47.9359854,23.2105263 48.9107143,23.2105263" id="Fill-55" fill="#FF6001"></path>
                </g>
                <g id="18" transform="translate(105.000000, 4.000000)">
                    <path d="M33.3947368,21.3913043 C37.7208664,21.3913043 41.2280702,17.999277 41.2280702,13.8152174 C41.2280702,9.6301854 37.7208664,6.23913043 33.3947368,6.23913043 C29.0686073,6.23913043 25.5614035,9.6301854 25.5614035,13.8152174 C25.5614035,17.999277 29.0686073,21.3913043 33.3947368,21.3913043 M33.3947368,19.3344031 C30.2477296,19.3344031 27.688147,16.8586339 27.688147,13.8152174 C27.688147,10.7715578 30.2477296,8.29505931 33.3947368,8.29505931 C36.5414927,8.29505931 39.1013267,10.7715578 39.1013267,13.8152174 C39.1013267,16.8586339 36.5414927,19.3344031 33.3947368,19.3344031" id="Fill-180" fill="#FF6001"></path>
                    <path d="M35.4561404,12.923913 C35.4561404,14.1539688 34.3489303,15.1521739 32.9824561,15.1521739 C31.6157474,15.1521739 30.5087719,14.1539688 30.5087719,12.923913 C30.5087719,11.6930118 31.6157474,10.6956522 32.9824561,10.6956522 C34.3489303,10.6956522 35.4561404,11.6930118 35.4561404,12.923913" id="Fill-181" fill="#FECD2B"></path>
                    <path d="M33.3948659,20.3223765 C28.8935428,20.3223765 25.2312176,23.8003122 25.2312176,28.0762095 C25.2312176,32.3518617 28.8935428,35.830778 33.3948659,35.830778 C37.8959309,35.830778 41.558256,32.3518617 41.558256,28.0762095 C41.558256,23.8003122 37.8959309,20.3223765 33.3948659,20.3223765 M33.3948659,41 C25.8924027,41 19.7894737,35.202705 19.7894737,28.0762095 C19.7894737,20.9504495 25.8924027,15.1521739 33.3948659,15.1521739 C40.8960387,15.1521739 47,20.9504495 47,28.0762095 C47,35.202705 40.8960387,41 33.3948659,41" id="Fill-182" fill="#2BE3AD"></path>
                    <polygon id="Fill-183" fill="#FF6001" points="0 39.2173913 16.4912281 39.2173913 16.4912281 34.7608696 0 34.7608696"></polygon>
                    <polygon id="Fill-184" fill="#4A66F8" points="4.94736842 33.8695652 9.89473684 33.8695652 9.89473684 10.6956522 4.94736842 10.6956522"></polygon>
                    <path d="M7.42034881,0 L4.94689921,0 C4.94689921,2.95340201 2.73292369,5.34782609 0,5.34782609 L0,10.6956522 C5.46467435,10.6956522 9.89473684,5.90756488 9.89473684,0 L7.42034881,0 Z" id="Fill-185" fill="#2BE3AD"></path>
                    <path d="M33.3948659,25.8478261 C40.9081682,25.8478261 47,20.0608823 47,12.923913 C47,5.78596323 40.9081682,0 33.3948659,0 C25.8802732,0 19.7894737,5.78596323 19.7894737,12.923913 C19.7894737,20.0608823 25.8802732,25.8478261 33.3948659,25.8478261 M33.3948659,23.773636 C27.0960589,23.773636 21.973036,18.9069746 21.973036,12.923913 C21.973036,6.94183208 27.0960589,2.07320952 33.3948659,2.07320952 C39.6923825,2.07320952 44.8166957,6.94183208 44.8166957,12.923913 C44.8166957,18.9069746 39.6923825,23.773636 33.3948659,23.773636" id="Fill-186" fill="#4A66F8"></path>
                </g>
            </g>
        </g>
        <g id="kkkkkk2" transform="translate(8.000000, 68.000000)">
            <g id="Group">
                <g id="MainLogo">
                    <polygon id="Fill-15" fill="#2BE3AD" points="17.6785714 42.5526316 17.6785714 41.2631579 16.5 42.5526316"></polygon>
                    <polygon id="Fill-17" fill="#2BE3AD" points="0 6.44736842 0 7.73684211 1.17857143 6.44736842"></polygon>
                    <polygon id="Fill-19" fill="#2BE3AD" points="16.5 7.73684211 0 24.7915572 0 25.7894737 16.5 8.73475862"></polygon>
                    <polygon id="Fill-21" fill="#2BE3AD" points="16.5 11.6052632 0 28.6603569 0 29.6578947 16.5 12.6031797"></polygon>
                    <polygon id="Fill-23" fill="#2BE3AD" points="16.5 14.1842105 0 31.2389465 0 32.2368421 16.5 15.1821061"></polygon>
                    <polygon id="Fill-25" fill="#2BE3AD" points="16.5 18.0526316 0 35.1073466 0 36.1052632 16.5 19.0505481"></polygon>
                    <polygon id="Fill-27" fill="#2BE3AD" points="16.5 21.9210526 0 38.9761464 0 39.9736842 16.5 22.9189691"></polygon>
                    <polygon id="Fill-29" fill="#2BE3AD" points="16.5 25.7894737 1.17857143 41.2631579 2.16511757 41.2631579 16.5 26.7859339"></polygon>
                    <polygon id="Fill-31" fill="#2BE3AD" points="17.6785714 29.6578947 5.89285714 42.5526316 6.87509323 42.5526316 17.6785714 30.7325921"></polygon>
                    <polygon id="Fill-33" fill="#2BE3AD" points="16.5 33.5263158 8.25 42.5526316 9.22485532 42.5526316 16.5 34.5933088"></polygon>
                    <polygon id="Fill-35" fill="#2BE3AD" points="12.981814 41.2631579 17.6785714 37.1521842 17.6785714 36.1052632 11.7857143 41.2631579"></polygon>
                    <polygon id="Fill-37" fill="#2BE3AD" points="4.69509607 6.44736842 0 10.5568879 0 11.6052632 5.89285714 6.44736842"></polygon>
                    <polygon id="Fill-39" fill="#2BE3AD" points="16.1689189 41.2631579 16.5 40.9012745 16.5 39.9736842 15.3214286 41.2631579"></polygon>
                    <polygon id="Fill-41" fill="#2BE3AD" points="0.326895944 6.44736842 0 6.80502491 0 7.73684211 1.17857143 6.44736842"></polygon>
                    <polygon id="Fill-43" fill="#2BE3AD" points="14.3347618 6.44736842 0 20.9244707 0 21.9210526 15.3214286 6.44736842"></polygon>
                    <polygon id="Fill-45" fill="#2BE3AD" points="10.8029496 6.44736842 0 18.2664217 0 19.3421053 11.7857143 6.44736842"></polygon>
                    <polygon id="Fill-47" fill="#2BE3AD" points="7.27440065 6.44736842 0 14.4059509 0 15.4736842 8.25 6.44736842"></polygon>
                    <polygon id="Fill-49" fill="#2BE3AD" points="21.2760143 49 18.8571429 48.4313136 29.4021843 0 31.8214286 0.568298969"></polygon>
                    <path d="M49.5,12.8947368 C43.6419789,12.8947368 38.8928571,17.8016868 38.8928571,23.8552632 C38.8928571,29.9088395 43.6419789,34.8157895 49.5,34.8157895 C55.3580211,34.8157895 60.1071429,29.9088395 60.1071429,23.8552632 C60.1071429,17.8016868 55.3580211,12.8947368 49.5,12.8947368 M49.5,14.7214259 C54.3738493,14.7214259 58.3389698,18.8190386 58.3389698,23.8552632 C58.3389698,28.8914877 54.3738493,32.9891004 49.5,32.9891004 C44.6261507,32.9891004 40.6606511,28.8914877 40.6606511,23.8552632 C40.6606511,18.8190386 44.6261507,14.7214259 49.5,14.7214259" id="Fill-51" fill="#FECD2B"></path>
                    <path d="M48.321239,5.15789474 C38.5575829,5.15789474 30.6428571,13.240475 30.6428571,23.2107199 C30.6428571,33.1805776 38.5575829,41.2631579 48.321239,41.2631579 C58.0848951,41.2631579 66,33.1805776 66,23.2107199 C66,13.240475 58.0848951,5.15789474 48.321239,5.15789474 M48.321239,6.96309982 C57.094654,6.96309982 64.2321997,14.2516686 64.2321997,23.2107199 C64.2321997,32.169384 57.094654,39.4579528 48.321239,39.4579528 C39.547824,39.4579528 32.4106574,32.169384 32.4106574,23.2107199 C32.4106574,14.2516686 39.547824,6.96309982 48.321239,6.96309982" id="Fill-53" fill="#4A66F8"></path>
                    <path d="M48.3214286,20.6315789 C46.3689378,20.6315789 44.7857143,22.3637821 44.7857143,24.5004148 C44.7857143,26.6370475 46.3689378,28.3684211 48.3214286,28.3684211 C50.2739193,28.3684211 51.8571429,26.6370475 51.8571429,24.5004148 C51.8571429,22.3637821 50.2739193,20.6315789 48.3214286,20.6315789 M48.9107143,23.2105263 C49.8854432,23.2105263 50.6785714,24.0779653 50.6785714,25.1449443 C50.6785714,26.2110936 49.8854432,27.0789474 48.9107143,27.0789474 C47.9359854,27.0789474 47.1428571,26.2110936 47.1428571,25.1449443 C47.1428571,24.0779653 47.9359854,23.2105263 48.9107143,23.2105263" id="Fill-55" fill="#FF6001"></path>
                </g>
                <g id="18" transform="translate(105.000000, 4.000000)">
                    <path d="M33.3947368,21.3913043 C37.7208664,21.3913043 41.2280702,17.999277 41.2280702,13.8152174 C41.2280702,9.6301854 37.7208664,6.23913043 33.3947368,6.23913043 C29.0686073,6.23913043 25.5614035,9.6301854 25.5614035,13.8152174 C25.5614035,17.999277 29.0686073,21.3913043 33.3947368,21.3913043 M33.3947368,19.3344031 C30.2477296,19.3344031 27.688147,16.8586339 27.688147,13.8152174 C27.688147,10.7715578 30.2477296,8.29505931 33.3947368,8.29505931 C36.5414927,8.29505931 39.1013267,10.7715578 39.1013267,13.8152174 C39.1013267,16.8586339 36.5414927,19.3344031 33.3947368,19.3344031" id="Fill-180" fill="#FF6001"></path>
                    <path d="M35.4561404,12.923913 C35.4561404,14.1539688 34.3489303,15.1521739 32.9824561,15.1521739 C31.6157474,15.1521739 30.5087719,14.1539688 30.5087719,12.923913 C30.5087719,11.6930118 31.6157474,10.6956522 32.9824561,10.6956522 C34.3489303,10.6956522 35.4561404,11.6930118 35.4561404,12.923913" id="Fill-181" fill="#FECD2B"></path>
                    <path d="M33.3948659,20.3223765 C28.8935428,20.3223765 25.2312176,23.8003122 25.2312176,28.0762095 C25.2312176,32.3518617 28.8935428,35.830778 33.3948659,35.830778 C37.8959309,35.830778 41.558256,32.3518617 41.558256,28.0762095 C41.558256,23.8003122 37.8959309,20.3223765 33.3948659,20.3223765 M33.3948659,41 C25.8924027,41 19.7894737,35.202705 19.7894737,28.0762095 C19.7894737,20.9504495 25.8924027,15.1521739 33.3948659,15.1521739 C40.8960387,15.1521739 47,20.9504495 47,28.0762095 C47,35.202705 40.8960387,41 33.3948659,41" id="Fill-182" fill="#2BE3AD"></path>
                    <polygon id="Fill-183" fill="#FF6001" points="0 39.2173913 16.4912281 39.2173913 16.4912281 34.7608696 0 34.7608696"></polygon>
                    <polygon id="Fill-184" fill="#4A66F8" points="4.94736842 33.8695652 9.89473684 33.8695652 9.89473684 10.6956522 4.94736842 10.6956522"></polygon>
                    <path d="M7.42034881,0 L4.94689921,0 C4.94689921,2.95340201 2.73292369,5.34782609 0,5.34782609 L0,10.6956522 C5.46467435,10.6956522 9.89473684,5.90756488 9.89473684,0 L7.42034881,0 Z" id="Fill-185" fill="#2BE3AD"></path>
                    <path d="M33.3948659,25.8478261 C40.9081682,25.8478261 47,20.0608823 47,12.923913 C47,5.78596323 40.9081682,0 33.3948659,0 C25.8802732,0 19.7894737,5.78596323 19.7894737,12.923913 C19.7894737,20.0608823 25.8802732,25.8478261 33.3948659,25.8478261 M33.3948659,23.773636 C27.0960589,23.773636 21.973036,18.9069746 21.973036,12.923913 C21.973036,6.94183208 27.0960589,2.07320952 33.3948659,2.07320952 C39.6923825,2.07320952 44.8166957,6.94183208 44.8166957,12.923913 C44.8166957,18.9069746 39.6923825,23.773636 33.3948659,23.773636" id="Fill-186" fill="#4A66F8"></path>
                </g>
            </g>
        </g>
    </g>
</svg>