<?xml version="1.0" encoding="UTF-8"?>
<svg width="265px" height="185px" viewBox="0 0 265 185" version="1.1" xmlns="http://www.w3.org/2000/svg" xmlns:xlink="http://www.w3.org/1999/xlink">
    <!-- Generator: Sketch 49.3 (51167) - http://www.bohemiancoding.com/sketch -->
    <title>logos</title>
    <desc>Created with Sketch.</desc>
    <defs></defs>
    <g id="logos" stroke="none" stroke-width="1" fill="none" fill-rule="evenodd">
        <g id="google_io_2018_wordmark_extended_logo_yourcity_cmyk" transform="translate(0.000000, 63.000000)" fill="#4E4E4E">
            <path d="M147.232418,54 C145.75083,54 144.508377,53.5231777 143.505023,52.5695187 C142.501669,51.6158598 142,50.4260321 142,49 C142,47.5739679 142.501669,46.3841402 143.505023,45.4304813 C144.508377,44.4768223 145.75083,44 147.232418,44 C148.751515,44 149.98459,44.5213852 150.931681,45.5641711 L150.03148,46.3930481 C149.346949,45.5819924 148.413938,45.1764706 147.232418,45.1764706 C146.135293,45.1764706 145.209314,45.528517 144.454454,46.2326203 C143.699594,46.9367237 143.32217,47.8591743 143.32217,49 C143.32217,50.1408257 143.699594,51.0632763 144.454454,51.7673797 C145.209314,52.471483 146.135293,52.8235294 147.232418,52.8235294 C148.442069,52.8235294 149.473539,52.3600759 150.326859,51.4331551 L151.22706,52.2887701 C150.76758,52.8146194 150.190894,53.2312819 149.496986,53.5387701 C148.803078,53.8462582 148.048229,54 147.232418,54 Z M158.358339,53.7860963 L157.120563,53.7860963 L157.120563,52.8770053 L157.0643,52.8770053 C156.86738,53.1889499 156.567316,53.4540987 156.164099,53.6724599 C155.760882,53.8908211 155.334229,54 154.884126,54 C154.021429,54 153.367383,53.7504481 152.921969,53.2513369 C152.476555,52.7522257 152.253851,52.0837832 152.253851,51.2459893 L152.253851,47.2352941 L153.54789,47.2352941 L153.54789,51.0454545 C153.54789,52.2664945 154.115199,52.8770053 155.249833,52.8770053 C155.78433,52.8770053 156.22036,52.6720163 156.557937,52.2620321 C156.895514,51.8520479 157.0643,51.3796818 157.0643,50.8449198 L157.0643,47.2352941 L158.358339,47.2352941 L158.358339,53.7860963 Z M160.693235,45.8449198 C160.440052,45.8449198 160.224381,45.7602504 160.046216,45.5909091 C159.86805,45.4215678 159.778969,45.2165787 159.778969,44.9759358 C159.778969,44.7352929 159.86805,44.5303039 160.046216,44.3609626 C160.224381,44.1916213 160.440052,44.1069519 160.693235,44.1069519 C160.946418,44.1069519 161.162089,44.1916213 161.340255,44.3609626 C161.51842,44.5303039 161.607502,44.7352929 161.607502,44.9759358 C161.607502,45.2165787 161.51842,45.4215678 161.340255,45.5909091 C161.162089,45.7602504 160.946418,45.8449198 160.693235,45.8449198 Z M161.340255,53.7860963 L160.046216,53.7860963 L160.046216,47.2352941 L161.340255,47.2352941 L161.340255,53.7860963 Z M165.137977,54 C164.40656,54 163.794711,53.7994672 163.302411,53.3983957 C162.810111,52.9973242 162.563965,52.4670265 162.563965,51.8074866 C162.563965,51.0944706 162.854652,50.535207 163.436035,50.1296791 C164.017418,49.7241513 164.734758,49.5213904 165.588078,49.5213904 C166.347626,49.5213904 166.971196,49.6550789 167.458808,49.9224599 L167.458808,49.7352941 C167.458808,49.2540083 167.285333,48.8685398 166.938379,48.578877 C166.591425,48.2892142 166.164771,48.144385 165.658406,48.144385 C165.28332,48.144385 164.943404,48.2290544 164.638647,48.3983957 C164.33389,48.567737 164.125252,48.7994638 164.012726,49.0935829 L162.831212,48.6122995 C162.990624,48.2201406 163.304753,47.8569535 163.77361,47.5227273 C164.242467,47.188501 164.861349,47.0213904 165.630275,47.0213904 C166.511726,47.0213904 167.243132,47.266486 167.824514,47.7566845 C168.405897,48.246883 168.696584,48.937607 168.696584,49.828877 L168.696584,53.7860963 L167.458808,53.7860963 L167.458808,52.8770053 L167.402545,52.8770053 C166.886803,53.6256722 166.131954,54 165.137977,54 Z M165.348962,52.8770053 C165.883459,52.8770053 166.368719,52.6876133 166.804756,52.3088235 C167.240793,51.9300338 167.458808,51.4821773 167.458808,50.9652406 C167.093099,50.6800342 166.544545,50.5374332 165.813128,50.5374332 C165.18486,50.5374332 164.711321,50.6666654 164.392498,50.9251337 C164.073676,51.183602 163.914267,51.4866293 163.914267,51.8342246 C163.914267,52.1550818 164.05961,52.40909 164.350301,52.5962567 C164.640993,52.7834234 164.973876,52.8770053 165.348962,52.8770053 Z M173.802411,54 C173.277291,54 172.806097,53.8930492 172.388814,53.6791444 C171.971532,53.4652396 171.659747,53.1978626 171.453449,52.8770053 L171.397187,52.8770053 L171.397187,53.7860963 L170.159411,53.7860963 L170.159411,44.2139037 L171.453449,44.2139037 L171.453449,47.2352941 L171.397187,48.144385 L171.453449,48.144385 C171.659747,47.8235278 171.971532,47.5561508 172.388814,47.342246 C172.806097,47.1283412 173.277291,47.0213904 173.802411,47.0213904 C174.69324,47.0213904 175.462153,47.3556116 176.109176,48.0240642 C176.756199,48.6925167 177.079705,49.5213854 177.079705,50.5106952 C177.079705,51.5000049 176.756199,52.3288737 176.109176,52.9973262 C175.462153,53.6657787 174.69324,54 173.802411,54 Z M173.591427,52.8770053 C174.191564,52.8770053 174.707299,52.6608756 175.138647,52.2286096 C175.569995,51.7963436 175.785666,51.2237112 175.785666,50.5106952 C175.785666,49.7976791 175.569995,49.2250467 175.138647,48.7927807 C174.707299,48.3605148 174.191564,48.144385 173.591427,48.144385 C172.981913,48.144385 172.463833,48.3582866 172.037173,48.7860963 C171.610514,49.2139059 171.397187,49.7887664 171.397187,50.5106952 C171.397187,51.2326239 171.610514,51.8074845 172.037173,52.2352941 C172.463833,52.6631037 172.981913,52.8770053 173.591427,52.8770053 Z M180.441393,54 C179.709976,54 179.098127,53.7994672 178.605827,53.3983957 C178.113527,52.9973242 177.867381,52.4670265 177.867381,51.8074866 C177.867381,51.0944706 178.158068,50.535207 178.739451,50.1296791 C179.320833,49.7241513 180.038174,49.5213904 180.891494,49.5213904 C181.651042,49.5213904 182.274612,49.6550789 182.762224,49.9224599 L182.762224,49.7352941 C182.762224,49.2540083 182.588749,48.8685398 182.241795,48.578877 C181.894841,48.2892142 181.468187,48.144385 180.961822,48.144385 C180.586736,48.144385 180.24682,48.2290544 179.942063,48.3983957 C179.637306,48.567737 179.428668,48.7994638 179.316142,49.0935829 L178.134628,48.6122995 C178.29404,48.2201406 178.608169,47.8569535 179.077026,47.5227273 C179.545883,47.188501 180.164765,47.0213904 180.933691,47.0213904 C181.815142,47.0213904 182.546548,47.266486 183.12793,47.7566845 C183.709313,48.246883 184,48.937607 184,49.828877 L184,53.7860963 L182.762224,53.7860963 L182.762224,52.8770053 L182.705961,52.8770053 C182.190218,53.6256722 181.43537,54 180.441393,54 Z M180.652378,52.8770053 C181.186875,52.8770053 181.672134,52.6876133 182.108171,52.3088235 C182.544208,51.9300338 182.762224,51.4821773 182.762224,50.9652406 C182.396515,50.6800342 181.847961,50.5374332 181.116544,50.5374332 C180.488275,50.5374332 180.014737,50.6666654 179.695914,50.9251337 C179.377092,51.183602 179.217683,51.4866293 179.217683,51.8342246 C179.217683,52.1550818 179.363026,52.40909 179.653717,52.5962567 C179.944409,52.7834234 180.277292,52.8770053 180.652378,52.8770053 Z M181.482251,45.9251337 L180.356999,45.9251337 L181.088413,44.2139037 L182.494977,44.2139037 L181.482251,45.9251337 Z" id="Cuiabá-Copy"></path>
            <g id="Extended" transform="translate(142.000000, 16.000000)">
                <polygon id="Fill-1" points="13.183551 3.09900548 2.90193424 3.09900548 2.90193424 10.8126925 12.1740814 10.8126925 12.1740814 13.734946 2.90193424 13.734946 2.90193424 21.448633 13.183551 21.448633 13.183551 24.4390207 0 24.4390207 0 0.10861787 13.183551 0.10861787"></polygon>
                <polygon id="Fill-2" points="28.3798578 24.3304028 24.9953836 24.3304028 21.2033865 18.1917055 17.4737653 24.3304028 14.0892911 24.3304028 19.5109184 15.8851314 14.2145051 7.71186874 17.4737653 7.71186874 21.2662245 13.5790573 24.8697076 7.71186874 28.2546438 7.71186874 22.8958546 15.8851314"></polygon>
                <path d="M36.420182,24.6579343 C34.8073131,24.6579343 33.5762322,24.1940059 32.7274026,23.2661491 C31.8790363,22.3382922 31.4550849,21.02558 31.4550849,19.3285128 L31.4550849,10.6044564 L28.7524522,10.6044564 L28.7524522,7.75282296 L31.4550849,7.75282296 L31.4550849,2.66112092 L34.3462948,2.66112092 L34.3462948,7.75282296 L38.1173778,7.75282296 L38.1173778,10.6044564 L34.3462948,10.6044564 L34.3462948,19.0907933 C34.3462948,20.9014654 35.0375905,21.8063009 36.420182,21.8063009 C36.9437504,21.8063009 37.3839186,21.7157173 37.7402232,21.53455 L38.7461233,24.2165267 C38.1173778,24.5097975 37.3417552,24.6579343 36.420182,24.6579343" id="Fill-3"></path>
                <path d="M51.222482,14.0666036 C51.1594685,13.1162259 50.7559037,12.2113903 50.0127145,11.3510959 C49.2685986,10.4913019 48.1630815,10.0614049 46.6970897,10.0614049 C45.6286394,10.0614049 44.7015062,10.423239 43.9156902,11.1474078 C43.1298741,11.8715765 42.5905523,12.8449754 42.2972612,14.0666036 L51.222482,14.0666036 Z M47.0742444,24.9291348 C44.7487664,24.9291348 42.8574332,24.0918616 41.4020982,22.4173152 C39.9449098,20.7427688 39.217474,18.6268148 39.217474,16.0694531 C39.217474,13.6482172 39.9245231,11.5662946 41.3386213,9.82318488 C42.7531828,8.0810761 44.560189,7.20977147 46.75964,7.20977147 C49.0434178,7.20977147 50.8712741,8.01301324 52.2436722,9.61999724 C53.6156069,11.2269812 54.3022693,13.3764662 54.3022693,16.0694531 L54.2712259,16.646486 L42.1086839,16.646486 C42.1925475,18.3215329 42.710556,19.6452553 43.6645626,20.6181537 C44.6176426,21.5910522 45.7328898,22.0780019 47.0112308,22.0780019 C49.0855813,22.0780019 50.4890228,21.1271237 51.222482,19.2263685 L53.7995509,20.3804342 C53.2968325,21.6701252 52.4683896,22.7516239 51.3170023,23.6224281 C50.164225,24.4932322 48.7501268,24.9291348 47.0742444,24.9291348 Z" id="Fill-5"></path>
                <path d="M59.0787891,7.75292306 L59.0787891,10.0610545 L59.2043529,10.0610545 C59.623671,9.26932341 60.2839233,8.5962018 61.1846464,8.04168972 C62.0849061,7.48717765 63.0486428,7.20992161 64.0758563,7.20992161 C65.9820162,7.20992161 67.4387413,7.84350671 68.4441781,9.1106769 C69.4500782,10.3783476 69.9527966,12.0754148 69.9527966,14.2023789 L69.9527966,24.3862835 L67.0615866,24.3862835 L67.0615866,14.6773175 C67.0615866,11.6004762 65.7934389,10.0610545 63.2585335,10.0610545 C62.0645194,10.0610545 61.0905894,10.5760301 60.3362801,11.6054808 C59.5819708,12.6354319 59.2043529,13.8290342 59.2043529,15.186788 L59.2043529,24.3862835 L56.3131429,24.3862835 L56.3131429,7.75292306 L59.0787891,7.75292306 Z" id="Fill-7"></path>
                <path d="M79.6320486,22.0779018 C80.9933267,22.0779018 82.1512007,21.5343999 83.1047439,20.448397 C84.0578239,19.3618936 84.5345955,17.9025459 84.5345955,16.069353 C84.5345955,14.2361601 84.0578239,12.7768125 83.1047439,11.6908096 C82.1512007,10.6043062 80.9933267,10.0613048 79.6320486,10.0613048 C78.290694,10.0613048 77.13838,10.6098113 76.1751067,11.7078253 C75.2113701,12.8058393 74.7295017,14.2591814 74.7295017,16.069353 C74.7295017,17.8800251 75.2113701,19.3343682 76.1751067,20.4313812 C77.13838,21.5288948 78.290694,22.0779018 79.6320486,22.0779018 M79.1603737,24.9290347 C77.1703502,24.9290347 75.4523042,24.0802509 74.0066992,22.3831837 C72.5610943,20.6861165 71.8382918,18.5816731 71.8382918,16.069353 C71.8382918,13.5575334 72.5610943,11.4530901 74.0066992,9.7555224 C75.4523042,8.05845521 77.1703502,7.21017184 79.1603737,7.21017184 C80.3340011,7.21017184 81.3862347,7.48142233 82.3193912,8.02442378 C83.2511578,8.56742522 83.9475502,9.24655238 84.4090318,10.0613048 L84.5345955,10.0613048 L84.4090318,7.75267282 L84.4090318,0.0810883372 L87.3002417,0.0810883372 L87.3002417,24.3860333 L84.5345955,24.3860333 L84.5345955,22.0779018 L84.4090318,22.0779018 C83.9475502,22.8926542 83.2511578,23.5712809 82.3193912,24.1142823 C81.3862347,24.6577842 80.3340011,24.9290347 79.1603737,24.9290347" id="Fill-9"></path>
                <path d="M101.15947,14.0666036 C101.096456,13.1162259 100.692892,12.2113903 99.9497024,11.3510959 C99.2055865,10.4913019 98.099606,10.0614049 96.6336143,10.0614049 C95.5656272,10.0614049 94.6384941,10.423239 93.8522147,11.1474078 C93.066862,11.8715765 92.5270768,12.8449754 92.2337858,14.0666036 L101.15947,14.0666036 Z M97.0112322,24.9291348 C94.6852909,24.9291348 92.794421,24.0918616 91.3386227,22.4173152 C89.8818976,20.7427688 89.1544618,18.6268148 89.1544618,16.0694531 C89.1544618,13.6482172 89.8610476,11.5662946 91.2756091,9.82318488 C92.6901707,8.0810761 94.4967136,7.20977147 96.6966278,7.20977147 C98.9799424,7.20977147 100.808262,8.01301324 102.18066,9.61999724 C103.552595,11.2269812 104.239257,13.3764662 104.239257,16.0694531 L104.20775,16.646486 L92.0456718,16.646486 C92.1290721,18.3215329 92.6475439,19.6452553 93.6015505,20.6181537 C94.5541671,21.5910522 95.6698776,22.0780019 96.9482187,22.0780019 C99.0225692,22.0780019 100.425547,21.1271237 101.15947,19.2263685 L103.736539,20.3804342 C103.23382,21.6701252 102.405377,22.7516239 101.253527,23.6224281 C100.101213,24.4932322 98.6871147,24.9291348 97.0112322,24.9291348 Z" id="Fill-11"></path>
                <path d="M113.321131,22.0779018 C114.682873,22.0779018 115.840283,21.5343999 116.793827,20.448397 C117.746907,19.3618936 118.223678,17.9025459 118.223678,16.069353 C118.223678,14.2361601 117.746907,12.7768125 116.793827,11.6908096 C115.840283,10.6043062 114.682873,10.0613048 113.321131,10.0613048 C111.979777,10.0613048 110.827463,10.6098113 109.86419,11.7078253 C108.900453,12.8058393 108.418585,14.2591814 108.418585,16.069353 C108.418585,17.8800251 108.900453,19.3343682 109.86419,20.4313812 C110.827463,21.5288948 111.979777,22.0779018 113.321131,22.0779018 M112.849457,24.9290347 C110.859433,24.9290347 109.141387,24.0802509 107.695782,22.3831837 C106.250177,20.6861165 105.527375,18.5816731 105.527375,16.069353 C105.527375,13.5575334 106.250177,11.4530901 107.695782,9.7555224 C109.141387,8.05845521 110.859433,7.21017184 112.849457,7.21017184 C114.023084,7.21017184 115.075781,7.48142233 116.008474,8.02442378 C116.940704,8.56742522 117.636633,9.24655238 118.098115,10.0613048 L118.223678,10.0613048 L118.098115,7.75267282 L118.098115,0.0810883372 L120.989325,0.0810883372 L120.989325,24.3860333 L118.223678,24.3860333 L118.223678,22.0779018 L118.098115,22.0779018 C117.636633,22.8926542 116.940704,23.5712809 116.008474,24.1142823 C115.075781,24.6577842 114.023084,24.9290347 112.849457,24.9290347" id="Fill-13"></path>
            </g>
            <g id="MainLogo">
                <polygon id="Fill-15" points="21.2999965 51.6841012 21.2999965 50.9579107 20.5806983 51.6841012"></polygon>
                <polygon id="Fill-17" points="0.0248779078 8.11596575 0.0248779078 8.84215623 0.744176153 8.11596575"></polygon>
                <polygon id="Fill-19" points="21.0614843 9.34733797 0.0251115259 31.0202783 0.0251115259 32.2884194 21.0614843 10.6154791"></polygon>
                <polygon id="Fill-21" points="21.0614843 13.8298678 0.0251115259 35.5032894 0.0251115259 36.7709492 21.0614843 15.0980089"></polygon>
                <polygon id="Fill-23" points="21.0614843 18.3123977 0.0251115259 39.9858193 0.0251115259 41.2539603 21.0614843 19.5805387"></polygon>
                <polygon id="Fill-25" points="21.0614843 22.79512 0.0251115259 44.4680603 0.0251115259 45.7362014 21.0614843 24.0632611"></polygon>
                <polygon id="Fill-27" points="21.0614843 27.2776498 0.0251115259 48.9510714 0.0251115259 50.2187313 21.0614843 28.5457909"></polygon>
                <polygon id="Fill-29" points="21.0614843 31.7601316 1.94825548 51.4526542 3.17895548 51.4526542 21.0614843 33.0282726"></polygon>
                <polygon id="Fill-31" points="21.0614843 36.2424208 6.29448606 51.4524136 7.52518606 51.4524136 21.0614843 37.5100806"></polygon>
                <polygon id="Fill-33" points="21.0614843 40.72471 10.6463235 51.4526542 11.8770235 51.4526542 21.0614843 41.9928511"></polygon>
                <polygon id="Fill-35" points="16.2289543 51.4526542 21.0615777 46.4748996 21.0615777 45.2072398 14.9982543 51.4526542"></polygon>
                <polygon id="Fill-37" points="4.84899761 8.11596575 0.0247844606 13.0850575 0.0247844606 14.3527173 6.07969761 8.11596575"></polygon>
                <polygon id="Fill-39" points="20.5807917 51.4526542 21.0615777 50.9579107 21.0615777 49.6897696 19.3500918 51.4526542"></polygon>
                <polygon id="Fill-41" points="0.497160199 8.11596575 0.0247844606 8.60252767 0.0247844606 9.87018749 1.72786019 8.11596575"></polygon>
                <polygon id="Fill-43" points="17.9048836 8.11596575 0.0246910133 26.537941 0.0246910133 27.8060821 19.1355836 8.11596575"></polygon>
                <polygon id="Fill-45" points="13.553093 8.11596575 0.0247377369 22.0549299 0.0247377369 23.3235522 14.7837929 8.11596575"></polygon>
                <polygon id="Fill-47" points="9.20125554 8.11596575 0.0247377369 17.5719188 0.0247377369 18.8405411 10.4319555 8.11596575"></polygon>
                <polygon id="Fill-49" points="26.4362885 60.8989337 23.4053277 60.1924324 36.6187657 0.0243111799 39.6501938 0.730331287"></polygon>
                <path d="M60.1295276,16.3191782 C52.9097948,16.3191782 47.0567277,22.3475408 47.0567277,29.7845747 C47.0567277,37.2216086 52.9097948,43.2499711 60.1295276,43.2499711 C67.3492605,43.2499711 73.2023276,37.2216086 73.2023276,29.7845747 C73.2023276,22.3475408 67.3492605,16.3191782 60.1295276,16.3191782 M60.1295276,18.5633308 C66.1363155,18.5633308 71.0231383,23.5973937 71.0231383,29.7845747 C71.0231383,35.9717557 66.1363155,41.0058186 60.1295276,41.0058186 C54.1227398,41.0058186 49.2354498,35.9717557 49.2354498,29.7845747 C49.2354498,23.5973937 54.1227398,18.5633308 60.1295276,18.5633308" id="Fill-51"></path>
                <path d="M60.1295276,7.34213499 C48.0963281,7.34213499 38.3418392,17.3900476 38.3418392,29.7846228 C38.3418392,42.1787167 48.0963281,52.2266294 60.1295276,52.2266294 C72.1627272,52.2266294 81.9176834,42.1787167 81.9176834,29.7846228 C81.9176834,17.3900476 72.1627272,7.34213499 60.1295276,7.34213499 M60.1295276,9.58628752 C70.9423064,9.58628752 79.7389612,18.6471195 79.7389612,29.7846228 C79.7389612,40.9216448 70.9423064,49.9824768 60.1295276,49.9824768 C49.3167489,49.9824768 40.5205613,40.9216448 40.5205613,29.7846228 C40.5205613,18.6471195 49.3167489,9.58628752 60.1295276,9.58628752" id="Fill-53"></path>
                <path d="M60.1295276,25.2959327 C57.7232615,25.2959327 55.7720834,27.3057078 55.7720834,29.7847191 C55.7720834,32.2637304 57.7232615,34.2725428 60.1295276,34.2725428 C62.5357938,34.2725428 64.4869719,32.2637304 64.4869719,29.7847191 C64.4869719,27.3057078 62.5357938,25.2959327 60.1295276,25.2959327 M60.1295276,27.5405665 C61.3307918,27.5405665 62.3082498,28.5468978 62.3082498,29.7847191 C62.3082498,31.0215777 61.3307918,32.0283903 60.1295276,32.0283903 C58.9282635,32.0283903 57.9508055,31.0215777 57.9508055,29.7847191 C57.9508055,28.5468978 58.9282635,27.5405665 60.1295276,27.5405665" id="Fill-55"></path>
            </g>
            <g id="18" transform="translate(90.000000, 10.000000)">
                <path d="M30.7932243,20.3943299 C34.7604201,20.3943299 37.9766355,17.0115591 37.9766355,12.8389175 C37.9766355,8.66530618 34.7604201,5.28350515 30.7932243,5.28350515 C26.8260285,5.28350515 23.6098131,8.66530618 23.6098131,12.8389175 C23.6098131,17.0115591 26.8260285,20.3943299 30.7932243,20.3943299 M30.7932243,18.3430417 C27.9073204,18.3430417 25.5601032,15.8740288 25.5601032,12.8389175 C25.5601032,9.80356382 27.9073204,7.33382355 30.7932243,7.33382355 C33.6788977,7.33382355 36.0263454,9.80356382 36.0263454,12.8389175 C36.0263454,15.8740288 33.6788977,18.3430417 30.7932243,18.3430417" id="Fill-180"></path>
                <path d="M33.2546729,12.7860825 C33.2546729,14.1860635 32.1754238,15.3221649 30.8434579,15.3221649 C29.5112634,15.3221649 28.432243,14.1860635 28.432243,12.7860825 C28.432243,11.3851393 29.5112634,10.25 30.8434579,10.25 C32.1754238,10.25 33.2546729,11.3851393 33.2546729,12.7860825" id="Fill-181"></path>
                <path d="M30.8435732,20.5428986 C26.8215619,20.5428986 23.5492099,23.983743 23.5492099,28.2140388 C23.5492099,32.4440921 26.8215619,35.8859066 30.8435732,35.8859066 C34.865354,35.8859066 38.137706,32.4440921 38.137706,28.2140388 C38.137706,23.983743 34.865354,20.5428986 30.8435732,20.5428986 M30.8435732,41 C24.1399904,41 18.6869159,35.2645318 18.6869159,28.2140388 C18.6869159,21.1642734 24.1399904,15.4278351 30.8435732,15.4278351 C37.5460032,15.4278351 43,21.1642734 43,28.2140388 C43,35.2645318 37.5460032,41 30.8435732,41" id="Fill-182"></path>
                <polygon id="Fill-183" points="0 40.8943299 14.567757 40.8943299 14.567757 35.8221649 0 35.8221649"></polygon>
                <polygon id="Fill-184" points="4.82242991 33.2860825 9.64485981 33.2860825 9.64485981 10.25 4.82242991 10.25"></polygon>
                <path d="M7.30830214,0 L4.87220142,0 C4.87220142,2.83034359 2.69165676,5.125 0,5.125 L0,10.25 C5.3821582,10.25 9.7453271,5.66141634 9.7453271,0 L7.30830214,0 Z" id="Fill-185"></path>
                <path d="M30.8435732,25.5721649 C37.556841,25.5721649 43,19.8469376 43,12.7860825 C43,5.72425726 37.556841,0 30.8435732,0 C24.1291525,0 18.6869159,5.72425726 18.6869159,12.7860825 C18.6869159,19.8469376 24.1291525,25.5721649 30.8435732,25.5721649 M30.8435732,23.5200956 C25.2154783,23.5200956 20.6379673,18.705336 20.6379673,12.7860825 C20.6379673,6.86779904 25.2154783,2.05109921 30.8435732,2.05109921 C36.4705152,2.05109921 41.0491792,6.86779904 41.0491792,12.7860825 C41.0491792,18.705336 36.4705152,23.5200956 30.8435732,23.5200956" id="Fill-186"></path>
            </g>
        </g>
        <g id="google_io_2018_wordmark_extended_logo_yourcity_cmyk">
            <path d="M145.356999,53 C143.840135,53 142.568101,52.5231777 141.540857,51.5695187 C140.513614,50.6158598 140,49.4260321 140,48 C140,46.5739679 140.513614,45.3841402 141.540857,44.4304813 C142.568101,43.4768223 143.840135,43 145.356999,43 C146.912265,43 148.174699,43.5213852 149.14434,44.5641711 L148.222706,45.3930481 C147.521876,44.5819924 146.56665,44.1764706 145.356999,44.1764706 C144.233752,44.1764706 143.285726,44.528517 142.512894,45.2326203 C141.740061,45.9367237 141.35365,46.8591743 141.35365,48 C141.35365,49.1408257 141.740061,50.0632763 142.512894,50.7673797 C143.285726,51.471483 144.233752,51.8235294 145.356999,51.8235294 C146.595452,51.8235294 147.65148,51.3600759 148.525117,50.4331551 L149.446752,51.2887701 C148.976332,51.8146194 148.385916,52.2312819 147.675486,52.5387701 C146.965056,52.8462582 146.192235,53 145.356999,53 Z M156.747823,52.7860963 L155.480576,52.7860963 L155.480576,51.8770053 L155.422974,51.8770053 C155.221365,52.1889499 154.914157,52.4540987 154.50134,52.6724599 C154.088522,52.8908211 153.65171,53 153.190891,53 C152.307654,53 151.638035,52.7504481 151.182016,52.2513369 C150.725997,51.7522257 150.497991,51.0837832 150.497991,50.2459893 L150.497991,46.2352941 L151.82284,46.2352941 L151.82284,50.0454545 C151.82284,51.2664945 152.403656,51.8770053 153.565305,51.8770053 C154.112528,51.8770053 154.55894,51.6720163 154.904555,51.2620321 C155.250169,50.8520479 155.422974,50.3796818 155.422974,49.8449198 L155.422974,46.2352941 L156.747823,46.2352941 L156.747823,52.7860963 Z M159.138312,44.8449198 C158.879101,44.8449198 158.658295,44.7602504 158.475887,44.5909091 C158.29348,44.4215678 158.202277,44.2165787 158.202277,43.9759358 C158.202277,43.7352929 158.29348,43.5303039 158.475887,43.3609626 C158.658295,43.1916213 158.879101,43.1069519 159.138312,43.1069519 C159.397523,43.1069519 159.618329,43.1916213 159.800737,43.3609626 C159.983144,43.5303039 160.074347,43.7352929 160.074347,43.9759358 C160.074347,44.2165787 159.983144,44.4215678 159.800737,44.5909091 C159.618329,44.7602504 159.397523,44.8449198 159.138312,44.8449198 Z M159.800737,52.7860963 L158.475887,52.7860963 L158.475887,46.2352941 L159.800737,46.2352941 L159.800737,52.7860963 Z M163.688881,53 C162.94005,53 162.313633,52.7994672 161.809612,52.3983957 C161.30559,51.9973242 161.053583,51.4670265 161.053583,50.8074866 C161.053583,50.0944706 161.351191,49.535207 161.946417,49.1296791 C162.541642,48.7241513 163.276062,48.5213904 164.149699,48.5213904 C164.927331,48.5213904 165.565749,48.6550789 166.06497,48.9224599 L166.06497,48.7352941 C166.06497,48.2540083 165.887365,47.8685398 165.53215,47.578877 C165.176935,47.2892142 164.740123,47.144385 164.221701,47.144385 C163.837685,47.144385 163.489676,47.2290544 163.177662,47.3983957 C162.865649,47.567737 162.652043,47.7994638 162.536839,48.0935829 L161.327194,47.6122995 C161.4904,47.2201406 161.812009,46.8569535 162.292029,46.5227273 C162.77205,46.188501 163.405667,46.0213904 164.1929,46.0213904 C165.095338,46.0213904 165.844159,46.266486 166.439384,46.7566845 C167.034609,47.246883 167.332217,47.937607 167.332217,48.828877 L167.332217,52.7860963 L166.06497,52.7860963 L166.06497,51.8770053 L166.007368,51.8770053 C165.479345,52.6256722 164.706524,53 163.688881,53 Z M163.904889,51.8770053 C164.452113,51.8770053 164.948926,51.6876133 165.395345,51.3088235 C165.841764,50.9300338 166.06497,50.4821773 166.06497,49.9652406 C165.690554,49.6800342 165.128939,49.5374332 164.380107,49.5374332 C163.73688,49.5374332 163.252067,49.6666654 162.925653,49.9251337 C162.599239,50.183602 162.436035,50.4866293 162.436035,50.8342246 C162.436035,51.1550818 162.584839,51.40909 162.882451,51.5962567 C163.180064,51.7834234 163.520873,51.8770053 163.904889,51.8770053 Z M172.559612,53 C172.021989,53 171.539576,52.8930492 171.112358,52.6791444 C170.68514,52.4652396 170.365931,52.1978626 170.154722,51.8770053 L170.09712,51.8770053 L170.09712,52.7860963 L168.829873,52.7860963 L168.829873,43.2139037 L170.154722,43.2139037 L170.154722,46.2352941 L170.09712,47.144385 L170.154722,47.144385 C170.365931,46.8235278 170.68514,46.5561508 171.112358,46.342246 C171.539576,46.1283412 172.021989,46.0213904 172.559612,46.0213904 C173.47165,46.0213904 174.258871,46.3556116 174.921299,47.0240642 C175.583727,47.6925167 175.914936,48.5213854 175.914936,49.5106952 C175.914936,50.5000049 175.583727,51.3288737 174.921299,51.9973262 C174.258871,52.6657787 173.47165,53 172.559612,53 Z M172.343603,51.8770053 C172.958029,51.8770053 173.486044,51.6608756 173.927662,51.2286096 C174.369281,50.7963436 174.590087,50.2237112 174.590087,49.5106952 C174.590087,48.7976791 174.369281,48.2250467 173.927662,47.7927807 C173.486044,47.3605148 172.958029,47.144385 172.343603,47.144385 C171.719577,47.144385 171.189163,47.3582866 170.752344,47.7860963 C170.315526,48.2139059 170.09712,48.7887664 170.09712,49.5106952 C170.09712,50.2326239 170.315526,50.8074845 170.752344,51.2352941 C171.189163,51.6631037 171.719577,51.8770053 172.343603,51.8770053 Z M179.356664,53 C178.607833,53 177.981416,52.7994672 177.477395,52.3983957 C176.973373,51.9973242 176.721366,51.4670265 176.721366,50.8074866 C176.721366,50.0944706 177.018974,49.535207 177.6142,49.1296791 C178.209425,48.7241513 178.943845,48.5213904 179.817482,48.5213904 C180.595114,48.5213904 181.233532,48.6550789 181.732753,48.9224599 L181.732753,48.7352941 C181.732753,48.2540083 181.555148,47.8685398 181.199933,47.578877 C180.844718,47.2892142 180.407906,47.144385 179.889484,47.144385 C179.505468,47.144385 179.157459,47.2290544 178.845445,47.3983957 C178.533432,47.567737 178.319826,47.7994638 178.204622,48.0935829 L176.994977,47.6122995 C177.158183,47.2201406 177.479792,46.8569535 177.959812,46.5227273 C178.439833,46.188501 179.07345,46.0213904 179.860683,46.0213904 C180.763121,46.0213904 181.511942,46.266486 182.107167,46.7566845 C182.702392,47.246883 183,47.937607 183,48.828877 L183,52.7860963 L181.732753,52.7860963 L181.732753,51.8770053 L181.675151,51.8770053 C181.147128,52.6256722 180.374307,53 179.356664,53 Z M179.572672,51.8770053 C180.119896,51.8770053 180.616709,51.6876133 181.063128,51.3088235 C181.509547,50.9300338 181.732753,50.4821773 181.732753,49.9652406 C181.358337,49.6800342 180.796722,49.5374332 180.04789,49.5374332 C179.404663,49.5374332 178.91985,49.6666654 178.593436,49.9251337 C178.267022,50.183602 178.103818,50.4866293 178.103818,50.8342246 C178.103818,51.1550818 178.252622,51.40909 178.550234,51.5962567 C178.847847,51.7834234 179.188656,51.8770053 179.572672,51.8770053 Z M180.422304,44.9251337 L179.270261,44.9251337 L180.019089,43.2139037 L181.459143,43.2139037 L180.422304,44.9251337 Z" id="Cuiabá-Copy" fill="#4E4E4E"></path>
            <g id="Extended" transform="translate(140.000000, 16.000000)" fill="#4E4E4E">
                <polygon id="Fill-1" points="13.183551 2.85108504 2.90193424 2.85108504 2.90193424 9.94767713 12.1740814 9.94767713 12.1740814 12.6361503 2.90193424 12.6361503 2.90193424 19.7327424 13.183551 19.7327424 13.183551 22.483899 0 22.483899 0 0.09992844 13.183551 0.09992844"></polygon>
                <polygon id="Fill-2" points="28.3798578 22.3839706 24.9953836 22.3839706 21.2033865 16.7363691 17.4737653 22.3839706 14.0892911 22.3839706 19.5109184 14.6143209 14.2145051 7.09491924 17.4737653 7.09491924 21.2662245 12.4927327 24.8697076 7.09491924 28.2546438 7.09491924 22.8958546 14.6143209"></polygon>
                <path d="M36.420182,22.6852996 C34.8073131,22.6852996 33.5762322,22.2584854 32.7274026,21.4048571 C31.8790363,20.5512288 31.4550849,19.3435336 31.4550849,17.7822318 L31.4550849,9.75609986 L28.7524522,9.75609986 L28.7524522,7.13259713 L31.4550849,7.13259713 L31.4550849,2.44823125 L34.3462948,2.44823125 L34.3462948,7.13259713 L38.1173778,7.13259713 L38.1173778,9.75609986 L34.3462948,9.75609986 L34.3462948,17.5635298 C34.3462948,19.2293481 35.0375905,20.0617969 36.420182,20.0617969 C36.9437504,20.0617969 37.3839186,19.9784599 37.7402232,19.811786 L38.7461233,22.2792046 C38.1173778,22.5490137 37.3417552,22.6852996 36.420182,22.6852996" id="Fill-3"></path>
                <path d="M51.222482,12.9412753 C51.1594685,12.0669278 50.7559037,11.2344791 50.0127145,10.4430082 C49.2685986,9.65199772 48.1630815,9.25649248 46.6970897,9.25649248 C45.6286394,9.25649248 44.7015062,9.58937989 43.9156902,10.2556151 C43.1298741,10.9218504 42.5905523,11.8173774 42.2972612,12.9412753 L51.222482,12.9412753 Z M47.0742444,22.934804 C44.7487664,22.934804 42.8574332,22.1645127 41.4020982,20.62393 C39.9449098,19.0833473 39.217474,17.1366696 39.217474,14.7838969 C39.217474,12.5563598 39.9245231,10.640991 41.3386213,9.03733009 C42.7531828,7.43459001 44.560189,6.63298975 46.75964,6.63298975 C49.0434178,6.63298975 50.8712741,7.37197218 52.2436722,8.85039747 C53.6156069,10.3288227 54.3022693,12.3063489 54.3022693,14.7838969 L54.2712259,15.3147671 L42.1086839,15.3147671 C42.1925475,16.8558102 42.710556,18.0736349 43.6645626,18.9687014 C44.6176426,19.863768 45.7328898,20.3117617 47.0112308,20.3117617 C49.0855813,20.3117617 50.4890228,19.4369538 51.222482,17.688259 L53.7995509,18.7499995 C53.2968325,19.9365152 52.4683896,20.931494 51.3170023,21.7326338 C50.164225,22.5337737 48.7501268,22.934804 47.0742444,22.934804 Z" id="Fill-5"></path>
                <path d="M59.0787891,7.13268921 L59.0787891,9.25617018 L59.2043529,9.25617018 C59.623671,8.52777753 60.2839233,7.90850566 61.1846464,7.39835455 C62.0849061,6.88820344 63.0486428,6.63312788 64.0758563,6.63312788 C65.9820162,6.63312788 67.4387413,7.21602617 68.4441781,8.38182275 C69.4500782,9.54807975 69.9527966,11.1093816 69.9527966,13.0661886 L69.9527966,22.4353808 L67.0615866,22.4353808 L67.0615866,13.5031321 C67.0615866,10.6724381 65.7934389,9.25617018 63.2585335,9.25617018 C62.0645194,9.25617018 61.0905894,9.7299477 60.3362801,10.6770423 C59.5819708,11.6245974 59.2043529,12.7227114 59.2043529,13.971845 L59.2043529,22.4353808 L56.3131429,22.4353808 L56.3131429,7.13268921 L59.0787891,7.13268921 Z" id="Fill-7"></path>
                <path d="M79.6320486,20.3116696 C80.9933267,20.3116696 82.1512007,19.8116479 83.1047439,18.8125252 C84.0578239,17.8129421 84.5345955,16.4703423 84.5345955,14.7838048 C84.5345955,13.0972673 84.0578239,11.7546675 83.1047439,10.7555448 C82.1512007,9.75596173 80.9933267,9.2564004 79.6320486,9.2564004 C78.290694,9.2564004 77.13838,9.7610264 76.1751067,10.7711993 C75.2113701,11.7813721 74.7295017,13.1184469 74.7295017,14.7838048 C74.7295017,16.4496231 75.2113701,17.7876187 76.1751067,18.7968707 C77.13838,19.8065832 78.290694,20.3116696 79.6320486,20.3116696 M79.1603737,22.9347119 C77.1703502,22.9347119 75.4523042,22.1538308 74.0066992,20.592529 C72.5610943,19.0312272 71.8382918,17.0951392 71.8382918,14.7838048 C71.8382918,12.4729308 72.5610943,10.5368428 74.0066992,8.97508061 C75.4523042,7.41377879 77.1703502,6.63335809 79.1603737,6.63335809 C80.3340011,6.63335809 81.3862347,6.88290855 82.3193912,7.38246988 C83.2511578,7.88203121 83.9475502,8.50682819 84.4090318,9.2564004 L84.5345955,9.2564004 L84.4090318,7.132459 L84.4090318,0.0746012703 L87.3002417,0.0746012703 L87.3002417,22.4351506 L84.5345955,22.4351506 L84.5345955,20.3116696 L84.4090318,20.3116696 C83.9475502,21.0612418 83.2511578,21.6855784 82.3193912,22.1851397 C81.3862347,22.6851615 80.3340011,22.9347119 79.1603737,22.9347119" id="Fill-9"></path>
                <path d="M101.15947,12.9412753 C101.096456,12.0669278 100.692892,11.2344791 99.9497024,10.4430082 C99.2055865,9.65199772 98.099606,9.25649248 96.6336143,9.25649248 C95.5656272,9.25649248 94.6384941,9.58937989 93.8522147,10.2556151 C93.066862,10.9218504 92.5270768,11.8173774 92.2337858,12.9412753 L101.15947,12.9412753 Z M97.0112322,22.934804 C94.6852909,22.934804 92.794421,22.1645127 91.3386227,20.62393 C89.8818976,19.0833473 89.1544618,17.1366696 89.1544618,14.7838969 C89.1544618,12.5563598 89.8610476,10.640991 91.2756091,9.03733009 C92.6901707,7.43459001 94.4967136,6.63298975 96.6966278,6.63298975 C98.9799424,6.63298975 100.808262,7.37197218 102.18066,8.85039747 C103.552595,10.3288227 104.239257,12.3063489 104.239257,14.7838969 L104.20775,15.3147671 L92.0456718,15.3147671 C92.1290721,16.8558102 92.6475439,18.0736349 93.6015505,18.9687014 C94.5541671,19.863768 95.6698776,20.3117617 96.9482187,20.3117617 C99.0225692,20.3117617 100.425547,19.4369538 101.15947,17.688259 L103.736539,18.7499995 C103.23382,19.9365152 102.405377,20.931494 101.253527,21.7326338 C100.101213,22.5337737 98.6871147,22.934804 97.0112322,22.934804 Z" id="Fill-11"></path>
                <path d="M113.321131,20.3116696 C114.682873,20.3116696 115.840283,19.8116479 116.793827,18.8125252 C117.746907,17.8129421 118.223678,16.4703423 118.223678,14.7838048 C118.223678,13.0972673 117.746907,11.7546675 116.793827,10.7555448 C115.840283,9.75596173 114.682873,9.2564004 113.321131,9.2564004 C111.979777,9.2564004 110.827463,9.7610264 109.86419,10.7711993 C108.900453,11.7813721 108.418585,13.1184469 108.418585,14.7838048 C108.418585,16.4496231 108.900453,17.7876187 109.86419,18.7968707 C110.827463,19.8065832 111.979777,20.3116696 113.321131,20.3116696 M112.849457,22.9347119 C110.859433,22.9347119 109.141387,22.1538308 107.695782,20.592529 C106.250177,19.0312272 105.527375,17.0951392 105.527375,14.7838048 C105.527375,12.4729308 106.250177,10.5368428 107.695782,8.97508061 C109.141387,7.41377879 110.859433,6.63335809 112.849457,6.63335809 C114.023084,6.63335809 115.075781,6.88290855 116.008474,7.38246988 C116.940704,7.88203121 117.636633,8.50682819 118.098115,9.2564004 L118.223678,9.2564004 L118.098115,7.132459 L118.098115,0.0746012703 L120.989325,0.0746012703 L120.989325,22.4351506 L118.223678,22.4351506 L118.223678,20.3116696 L118.098115,20.3116696 C117.636633,21.0612418 116.940704,21.6855784 116.008474,22.1851397 C115.075781,22.6851615 114.023084,22.9347119 112.849457,22.9347119" id="Fill-13"></path>
            </g>
            <g id="MainLogo">
                <polygon id="Fill-15" fill="#2BE3AD" points="21.0402405 50.8368209 21.0402405 50.1225352 20.3297142 50.8368209"></polygon>
                <polygon id="Fill-17" fill="#2BE3AD" points="0.0245745187 7.98291714 0.0245745187 8.69720285 0.735100834 7.98291714"></polygon>
                <polygon id="Fill-19" fill="#2BE3AD" points="20.8046369 9.19410292 0.0248052877 30.5117492 0.0248052877 31.759101 20.8046369 10.4414548"></polygon>
                <polygon id="Fill-21" fill="#2BE3AD" points="20.8046369 13.6031487 0.0248052877 34.9212683 0.0248052877 36.1681468 20.8046369 14.8505006"></polygon>
                <polygon id="Fill-23" fill="#2BE3AD" points="20.8046369 18.0121944 0.0248052877 39.330314 0.0248052877 40.5776659 20.8046369 19.2595463"></polygon>
                <polygon id="Fill-25" fill="#2BE3AD" points="20.8046369 22.4214295 0.0248052877 43.7390757 0.0248052877 44.9864276 20.8046369 23.6687814"></polygon>
                <polygon id="Fill-27" fill="#2BE3AD" points="20.8046369 26.8304753 0.0248052877 48.1485949 0.0248052877 49.3954734 20.8046369 28.0778271"></polygon>
                <polygon id="Fill-29" fill="#2BE3AD" points="20.8046369 31.2394737 1.92449627 50.6091681 3.14018773 50.6091681 20.8046369 32.4868256"></polygon>
                <polygon id="Fill-31" fill="#2BE3AD" points="20.8046369 35.6482827 6.21772404 50.6089314 7.43341549 50.6089314 20.8046369 36.8951612"></polygon>
                <polygon id="Fill-33" fill="#2BE3AD" points="20.8046369 40.0570918 10.5164903 50.6091681 11.7321817 50.6091681 20.8046369 41.3044437"></polygon>
                <polygon id="Fill-35" fill="#2BE3AD" points="16.0310403 50.6091681 20.8047292 45.713016 20.8047292 44.4661375 14.8153488 50.6091681"></polygon>
                <polygon id="Fill-37" fill="#2BE3AD" points="4.7898635 7.98291714 0.024482211 12.8705484 0.024482211 14.1174269 6.00555495 7.98291714"></polygon>
                <polygon id="Fill-39" fill="#2BE3AD" points="20.3298065 50.6091681 20.8047292 50.1225352 20.8047292 48.8751833 19.114115 50.6091681"></polygon>
                <polygon id="Fill-41" fill="#2BE3AD" points="0.49109727 7.98291714 0.024482211 8.46150262 0.024482211 9.70838114 1.70678873 7.98291714"></polygon>
                <polygon id="Fill-43" fill="#2BE3AD" points="17.6865314 7.98291714 0.0243899034 26.1028928 0.0243899034 27.3502447 18.9022229 7.98291714"></polygon>
                <polygon id="Fill-45" fill="#2BE3AD" points="13.3878113 7.98291714 0.0244360572 21.6933736 0.0244360572 22.9411989 14.6035028 7.98291714"></polygon>
                <polygon id="Fill-47" fill="#2BE3AD" points="9.08904511 7.98291714 0.0244360572 17.2838545 0.0244360572 18.5316798 10.3047366 7.98291714"></polygon>
                <polygon id="Fill-49" fill="#2BE3AD" points="26.1138947 59.9005906 23.1198968 59.2056712 36.1721954 0.0239126359 39.1666549 0.718358643"></polygon>
                <path d="M59.3962407,16.0516507 C52.2645534,16.0516507 46.4828651,21.9811877 46.4828651,29.296303 C46.4828651,36.6114183 52.2645534,42.5409552 59.3962407,42.5409552 C66.527928,42.5409552 72.3096163,36.6114183 72.3096163,29.296303 C72.3096163,21.9811877 66.527928,16.0516507 59.3962407,16.0516507 M59.3962407,18.2590139 C65.329775,18.2590139 70.1570024,23.2105512 70.1570024,29.296303 C70.1570024,35.3820547 65.329775,40.3335921 59.3962407,40.3335921 C53.4627064,40.3335921 48.6350175,35.3820547 48.6350175,29.296303 C48.6350175,23.2105512 53.4627064,18.2590139 59.3962407,18.2590139" id="Fill-51" fill="#FECD2B"></path>
                <path d="M59.3962407,7.22177212 C47.5097875,7.22177212 37.8742558,17.1049648 37.8742558,29.2963503 C37.8742558,41.4872624 47.5097875,51.3704551 59.3962407,51.3704551 C71.282694,51.3704551 80.9186872,41.4872624 80.9186872,29.2963503 C80.9186872,17.1049648 71.282694,7.22177212 59.3962407,7.22177212 M59.3962407,9.42913526 C70.0771563,9.42913526 78.7665349,18.341429 78.7665349,29.2963503 C78.7665349,40.2507982 70.0771563,49.163092 59.3962407,49.163092 C48.7153251,49.163092 40.0264081,40.2507982 40.0264081,29.2963503 C40.0264081,18.341429 48.7153251,9.42913526 59.3962407,9.42913526" id="Fill-53" fill="#4A66F8"></path>
                <path d="M59.3962407,24.8812453 C57.0193193,24.8812453 55.091936,26.8580732 55.091936,29.296445 C55.091936,31.7348167 57.0193193,33.7106979 59.3962407,33.7106979 C61.7731621,33.7106979 63.7005454,31.7348167 63.7005454,29.296445 C63.7005454,26.8580732 61.7731621,24.8812453 59.3962407,24.8812453 M59.3962407,27.0890818 C60.5828553,27.0890818 61.5483931,28.0789159 61.5483931,29.296445 C61.5483931,30.5130273 60.5828553,31.5033347 59.3962407,31.5033347 C58.2096262,31.5033347 57.2440884,30.5130273 57.2440884,29.296445 C57.2440884,28.0789159 58.2096262,27.0890818 59.3962407,27.0890818" id="Fill-55" fill="#FF6001"></path>
            </g>
            <g id="18" transform="translate(89.000000, 10.000000)">
                <path d="M30.7932243,19.8969072 C34.7604201,19.8969072 37.9766355,16.596643 37.9766355,12.5257732 C37.9766355,8.45395725 34.7604201,5.15463918 30.7932243,5.15463918 C26.8260285,5.15463918 23.6098131,8.45395725 23.6098131,12.5257732 C23.6098131,16.596643 26.8260285,19.8969072 30.7932243,19.8969072 M30.7932243,17.8956505 C27.9073204,17.8956505 25.5601032,15.4868574 25.5601032,12.5257732 C25.5601032,9.56445251 27.9073204,7.1549498 30.7932243,7.1549498 C33.6788977,7.1549498 36.0263454,9.56445251 36.0263454,12.5257732 C36.0263454,15.4868574 33.6788977,17.8956505 30.7932243,17.8956505" id="Fill-180" fill="#FF6001"></path>
                <path d="M33.2546729,12.4742268 C33.2546729,13.840062 32.1754238,14.9484536 30.8434579,14.9484536 C29.5112634,14.9484536 28.432243,13.840062 28.432243,12.4742268 C28.432243,11.1074529 29.5112634,10 30.8434579,10 C32.1754238,10 33.2546729,11.1074529 33.2546729,12.4742268" id="Fill-181" fill="#FECD2B"></path>
                <path d="M30.8435732,20.0418523 C26.8215619,20.0418523 23.5492099,23.3987736 23.5492099,27.5258915 C23.5492099,31.6527728 26.8215619,35.0106405 30.8435732,35.0106405 C34.865354,35.0106405 38.137706,31.6527728 38.137706,27.5258915 C38.137706,23.3987736 34.865354,20.0418523 30.8435732,20.0418523 M30.8435732,40 C24.1399904,40 18.6869159,34.4044213 18.6869159,27.5258915 C18.6869159,20.6480716 24.1399904,15.0515464 30.8435732,15.0515464 C37.5460032,15.0515464 43,20.6480716 43,27.5258915 C43,34.4044213 37.5460032,40 30.8435732,40" id="Fill-182" fill="#2BE3AD"></path>
                <polygon id="Fill-183" fill="#FF6001" points="0 39.8969072 14.567757 39.8969072 14.567757 34.9484536 0 34.9484536"></polygon>
                <polygon id="Fill-184" fill="#4A66F8" points="4.82242991 32.4742268 9.64485981 32.4742268 9.64485981 10 4.82242991 10"></polygon>
                <path d="M7.30830214,0 L4.87220142,0 C4.87220142,2.76131082 2.69165676,5 0,5 L0,10 C5.3821582,10 9.7453271,5.52333302 9.7453271,0 L7.30830214,0 Z" id="Fill-185" fill="#2BE3AD"></path>
                <path d="M30.8435732,24.9484536 C37.556841,24.9484536 43,19.3628659 43,12.4742268 C43,5.58464123 37.556841,0 30.8435732,0 C24.1291525,0 18.6869159,5.58464123 18.6869159,12.4742268 C18.6869159,19.3628659 24.1291525,24.9484536 30.8435732,24.9484536 M30.8435732,22.9464347 C25.2154783,22.9464347 20.6379673,18.2491083 20.6379673,12.4742268 C20.6379673,6.70029174 25.2154783,2.0010724 30.8435732,2.0010724 C36.4705152,2.0010724 41.0491792,6.70029174 41.0491792,12.4742268 C41.0491792,18.2491083 36.4705152,22.9464347 30.8435732,22.9464347" id="Fill-186" fill="#4A66F8"></path>
            </g>
        </g>
        <g id="google_io_2018_wordmark_extended_logo_yourcity_cmyk" transform="translate(0.000000, 124.000000)">
            <path d="M147.356999,53 C145.840135,53 144.568101,52.5231777 143.540857,51.5695187 C142.513614,50.6158598 142,49.4260321 142,48 C142,46.5739679 142.513614,45.3841402 143.540857,44.4304813 C144.568101,43.4768223 145.840135,43 147.356999,43 C148.912265,43 150.174699,43.5213852 151.14434,44.5641711 L150.222706,45.3930481 C149.521876,44.5819924 148.56665,44.1764706 147.356999,44.1764706 C146.233752,44.1764706 145.285726,44.528517 144.512894,45.2326203 C143.740061,45.9367237 143.35365,46.8591743 143.35365,48 C143.35365,49.1408257 143.740061,50.0632763 144.512894,50.7673797 C145.285726,51.471483 146.233752,51.8235294 147.356999,51.8235294 C148.595452,51.8235294 149.65148,51.3600759 150.525117,50.4331551 L151.446752,51.2887701 C150.976332,51.8146194 150.385916,52.2312819 149.675486,52.5387701 C148.965056,52.8462582 148.192235,53 147.356999,53 Z M158.747823,52.7860963 L157.480576,52.7860963 L157.480576,51.8770053 L157.422974,51.8770053 C157.221365,52.1889499 156.914157,52.4540987 156.50134,52.6724599 C156.088522,52.8908211 155.65171,53 155.190891,53 C154.307654,53 153.638035,52.7504481 153.182016,52.2513369 C152.725997,51.7522257 152.497991,51.0837832 152.497991,50.2459893 L152.497991,46.2352941 L153.82284,46.2352941 L153.82284,50.0454545 C153.82284,51.2664945 154.403656,51.8770053 155.565305,51.8770053 C156.112528,51.8770053 156.55894,51.6720163 156.904555,51.2620321 C157.250169,50.8520479 157.422974,50.3796818 157.422974,49.8449198 L157.422974,46.2352941 L158.747823,46.2352941 L158.747823,52.7860963 Z M161.138312,44.8449198 C160.879101,44.8449198 160.658295,44.7602504 160.475887,44.5909091 C160.29348,44.4215678 160.202277,44.2165787 160.202277,43.9759358 C160.202277,43.7352929 160.29348,43.5303039 160.475887,43.3609626 C160.658295,43.1916213 160.879101,43.1069519 161.138312,43.1069519 C161.397523,43.1069519 161.618329,43.1916213 161.800737,43.3609626 C161.983144,43.5303039 162.074347,43.7352929 162.074347,43.9759358 C162.074347,44.2165787 161.983144,44.4215678 161.800737,44.5909091 C161.618329,44.7602504 161.397523,44.8449198 161.138312,44.8449198 Z M161.800737,52.7860963 L160.475887,52.7860963 L160.475887,46.2352941 L161.800737,46.2352941 L161.800737,52.7860963 Z M165.688881,53 C164.94005,53 164.313633,52.7994672 163.809612,52.3983957 C163.30559,51.9973242 163.053583,51.4670265 163.053583,50.8074866 C163.053583,50.0944706 163.351191,49.535207 163.946417,49.1296791 C164.541642,48.7241513 165.276062,48.5213904 166.149699,48.5213904 C166.927331,48.5213904 167.565749,48.6550789 168.06497,48.9224599 L168.06497,48.7352941 C168.06497,48.2540083 167.887365,47.8685398 167.53215,47.578877 C167.176935,47.2892142 166.740123,47.144385 166.221701,47.144385 C165.837685,47.144385 165.489676,47.2290544 165.177662,47.3983957 C164.865649,47.567737 164.652043,47.7994638 164.536839,48.0935829 L163.327194,47.6122995 C163.4904,47.2201406 163.812009,46.8569535 164.292029,46.5227273 C164.77205,46.188501 165.405667,46.0213904 166.1929,46.0213904 C167.095338,46.0213904 167.844159,46.266486 168.439384,46.7566845 C169.034609,47.246883 169.332217,47.937607 169.332217,48.828877 L169.332217,52.7860963 L168.06497,52.7860963 L168.06497,51.8770053 L168.007368,51.8770053 C167.479345,52.6256722 166.706524,53 165.688881,53 Z M165.904889,51.8770053 C166.452113,51.8770053 166.948926,51.6876133 167.395345,51.3088235 C167.841764,50.9300338 168.06497,50.4821773 168.06497,49.9652406 C167.690554,49.6800342 167.128939,49.5374332 166.380107,49.5374332 C165.73688,49.5374332 165.252067,49.6666654 164.925653,49.9251337 C164.599239,50.183602 164.436035,50.4866293 164.436035,50.8342246 C164.436035,51.1550818 164.584839,51.40909 164.882451,51.5962567 C165.180064,51.7834234 165.520873,51.8770053 165.904889,51.8770053 Z M174.559612,53 C174.021989,53 173.539576,52.8930492 173.112358,52.6791444 C172.68514,52.4652396 172.365931,52.1978626 172.154722,51.8770053 L172.09712,51.8770053 L172.09712,52.7860963 L170.829873,52.7860963 L170.829873,43.2139037 L172.154722,43.2139037 L172.154722,46.2352941 L172.09712,47.144385 L172.154722,47.144385 C172.365931,46.8235278 172.68514,46.5561508 173.112358,46.342246 C173.539576,46.1283412 174.021989,46.0213904 174.559612,46.0213904 C175.47165,46.0213904 176.258871,46.3556116 176.921299,47.0240642 C177.583727,47.6925167 177.914936,48.5213854 177.914936,49.5106952 C177.914936,50.5000049 177.583727,51.3288737 176.921299,51.9973262 C176.258871,52.6657787 175.47165,53 174.559612,53 Z M174.343603,51.8770053 C174.958029,51.8770053 175.486044,51.6608756 175.927662,51.2286096 C176.369281,50.7963436 176.590087,50.2237112 176.590087,49.5106952 C176.590087,48.7976791 176.369281,48.2250467 175.927662,47.7927807 C175.486044,47.3605148 174.958029,47.144385 174.343603,47.144385 C173.719577,47.144385 173.189163,47.3582866 172.752344,47.7860963 C172.315526,48.2139059 172.09712,48.7887664 172.09712,49.5106952 C172.09712,50.2326239 172.315526,50.8074845 172.752344,51.2352941 C173.189163,51.6631037 173.719577,51.8770053 174.343603,51.8770053 Z M181.356664,53 C180.607833,53 179.981416,52.7994672 179.477395,52.3983957 C178.973373,51.9973242 178.721366,51.4670265 178.721366,50.8074866 C178.721366,50.0944706 179.018974,49.535207 179.6142,49.1296791 C180.209425,48.7241513 180.943845,48.5213904 181.817482,48.5213904 C182.595114,48.5213904 183.233532,48.6550789 183.732753,48.9224599 L183.732753,48.7352941 C183.732753,48.2540083 183.555148,47.8685398 183.199933,47.578877 C182.844718,47.2892142 182.407906,47.144385 181.889484,47.144385 C181.505468,47.144385 181.157459,47.2290544 180.845445,47.3983957 C180.533432,47.567737 180.319826,47.7994638 180.204622,48.0935829 L178.994977,47.6122995 C179.158183,47.2201406 179.479792,46.8569535 179.959812,46.5227273 C180.439833,46.188501 181.07345,46.0213904 181.860683,46.0213904 C182.763121,46.0213904 183.511942,46.266486 184.107167,46.7566845 C184.702392,47.246883 185,47.937607 185,48.828877 L185,52.7860963 L183.732753,52.7860963 L183.732753,51.8770053 L183.675151,51.8770053 C183.147128,52.6256722 182.374307,53 181.356664,53 Z M181.572672,51.8770053 C182.119896,51.8770053 182.616709,51.6876133 183.063128,51.3088235 C183.509547,50.9300338 183.732753,50.4821773 183.732753,49.9652406 C183.358337,49.6800342 182.796722,49.5374332 182.04789,49.5374332 C181.404663,49.5374332 180.91985,49.6666654 180.593436,49.9251337 C180.267022,50.183602 180.103818,50.4866293 180.103818,50.8342246 C180.103818,51.1550818 180.252622,51.40909 180.550234,51.5962567 C180.847847,51.7834234 181.188656,51.8770053 181.572672,51.8770053 Z M182.422304,44.9251337 L181.270261,44.9251337 L182.019089,43.2139037 L183.459143,43.2139037 L182.422304,44.9251337 Z" id="Cuiabá-Copy" fill="#B4B5B4"></path>
            <g id="Extended" transform="translate(142.000000, 16.000000)" fill="#B4B5B4">
                <polygon id="Fill-1" points="13.183551 2.85108504 2.90193424 2.85108504 2.90193424 9.94767713 12.1740814 9.94767713 12.1740814 12.6361503 2.90193424 12.6361503 2.90193424 19.7327424 13.183551 19.7327424 13.183551 22.483899 0 22.483899 0 0.09992844 13.183551 0.09992844"></polygon>
                <polygon id="Fill-2" points="28.3798578 22.3839706 24.9953836 22.3839706 21.2033865 16.7363691 17.4737653 22.3839706 14.0892911 22.3839706 19.5109184 14.6143209 14.2145051 7.09491924 17.4737653 7.09491924 21.2662245 12.4927327 24.8697076 7.09491924 28.2546438 7.09491924 22.8958546 14.6143209"></polygon>
                <path d="M36.420182,22.6852996 C34.8073131,22.6852996 33.5762322,22.2584854 32.7274026,21.4048571 C31.8790363,20.5512288 31.4550849,19.3435336 31.4550849,17.7822318 L31.4550849,9.75609986 L28.7524522,9.75609986 L28.7524522,7.13259713 L31.4550849,7.13259713 L31.4550849,2.44823125 L34.3462948,2.44823125 L34.3462948,7.13259713 L38.1173778,7.13259713 L38.1173778,9.75609986 L34.3462948,9.75609986 L34.3462948,17.5635298 C34.3462948,19.2293481 35.0375905,20.0617969 36.420182,20.0617969 C36.9437504,20.0617969 37.3839186,19.9784599 37.7402232,19.811786 L38.7461233,22.2792046 C38.1173778,22.5490137 37.3417552,22.6852996 36.420182,22.6852996" id="Fill-3"></path>
                <path d="M51.222482,12.9412753 C51.1594685,12.0669278 50.7559037,11.2344791 50.0127145,10.4430082 C49.2685986,9.65199772 48.1630815,9.25649248 46.6970897,9.25649248 C45.6286394,9.25649248 44.7015062,9.58937989 43.9156902,10.2556151 C43.1298741,10.9218504 42.5905523,11.8173774 42.2972612,12.9412753 L51.222482,12.9412753 Z M47.0742444,22.934804 C44.7487664,22.934804 42.8574332,22.1645127 41.4020982,20.62393 C39.9449098,19.0833473 39.217474,17.1366696 39.217474,14.7838969 C39.217474,12.5563598 39.9245231,10.640991 41.3386213,9.03733009 C42.7531828,7.43459001 44.560189,6.63298975 46.75964,6.63298975 C49.0434178,6.63298975 50.8712741,7.37197218 52.2436722,8.85039747 C53.6156069,10.3288227 54.3022693,12.3063489 54.3022693,14.7838969 L54.2712259,15.3147671 L42.1086839,15.3147671 C42.1925475,16.8558102 42.710556,18.0736349 43.6645626,18.9687014 C44.6176426,19.863768 45.7328898,20.3117617 47.0112308,20.3117617 C49.0855813,20.3117617 50.4890228,19.4369538 51.222482,17.688259 L53.7995509,18.7499995 C53.2968325,19.9365152 52.4683896,20.931494 51.3170023,21.7326338 C50.164225,22.5337737 48.7501268,22.934804 47.0742444,22.934804 Z" id="Fill-5"></path>
                <path d="M59.0787891,7.13268921 L59.0787891,9.25617018 L59.2043529,9.25617018 C59.623671,8.52777753 60.2839233,7.90850566 61.1846464,7.39835455 C62.0849061,6.88820344 63.0486428,6.63312788 64.0758563,6.63312788 C65.9820162,6.63312788 67.4387413,7.21602617 68.4441781,8.38182275 C69.4500782,9.54807975 69.9527966,11.1093816 69.9527966,13.0661886 L69.9527966,22.4353808 L67.0615866,22.4353808 L67.0615866,13.5031321 C67.0615866,10.6724381 65.7934389,9.25617018 63.2585335,9.25617018 C62.0645194,9.25617018 61.0905894,9.7299477 60.3362801,10.6770423 C59.5819708,11.6245974 59.2043529,12.7227114 59.2043529,13.971845 L59.2043529,22.4353808 L56.3131429,22.4353808 L56.3131429,7.13268921 L59.0787891,7.13268921 Z" id="Fill-7"></path>
                <path d="M79.6320486,20.3116696 C80.9933267,20.3116696 82.1512007,19.8116479 83.1047439,18.8125252 C84.0578239,17.8129421 84.5345955,16.4703423 84.5345955,14.7838048 C84.5345955,13.0972673 84.0578239,11.7546675 83.1047439,10.7555448 C82.1512007,9.75596173 80.9933267,9.2564004 79.6320486,9.2564004 C78.290694,9.2564004 77.13838,9.7610264 76.1751067,10.7711993 C75.2113701,11.7813721 74.7295017,13.1184469 74.7295017,14.7838048 C74.7295017,16.4496231 75.2113701,17.7876187 76.1751067,18.7968707 C77.13838,19.8065832 78.290694,20.3116696 79.6320486,20.3116696 M79.1603737,22.9347119 C77.1703502,22.9347119 75.4523042,22.1538308 74.0066992,20.592529 C72.5610943,19.0312272 71.8382918,17.0951392 71.8382918,14.7838048 C71.8382918,12.4729308 72.5610943,10.5368428 74.0066992,8.97508061 C75.4523042,7.41377879 77.1703502,6.63335809 79.1603737,6.63335809 C80.3340011,6.63335809 81.3862347,6.88290855 82.3193912,7.38246988 C83.2511578,7.88203121 83.9475502,8.50682819 84.4090318,9.2564004 L84.5345955,9.2564004 L84.4090318,7.132459 L84.4090318,0.0746012703 L87.3002417,0.0746012703 L87.3002417,22.4351506 L84.5345955,22.4351506 L84.5345955,20.3116696 L84.4090318,20.3116696 C83.9475502,21.0612418 83.2511578,21.6855784 82.3193912,22.1851397 C81.3862347,22.6851615 80.3340011,22.9347119 79.1603737,22.9347119" id="Fill-9"></path>
                <path d="M101.15947,12.9412753 C101.096456,12.0669278 100.692892,11.2344791 99.9497024,10.4430082 C99.2055865,9.65199772 98.099606,9.25649248 96.6336143,9.25649248 C95.5656272,9.25649248 94.6384941,9.58937989 93.8522147,10.2556151 C93.066862,10.9218504 92.5270768,11.8173774 92.2337858,12.9412753 L101.15947,12.9412753 Z M97.0112322,22.934804 C94.6852909,22.934804 92.794421,22.1645127 91.3386227,20.62393 C89.8818976,19.0833473 89.1544618,17.1366696 89.1544618,14.7838969 C89.1544618,12.5563598 89.8610476,10.640991 91.2756091,9.03733009 C92.6901707,7.43459001 94.4967136,6.63298975 96.6966278,6.63298975 C98.9799424,6.63298975 100.808262,7.37197218 102.18066,8.85039747 C103.552595,10.3288227 104.239257,12.3063489 104.239257,14.7838969 L104.20775,15.3147671 L92.0456718,15.3147671 C92.1290721,16.8558102 92.6475439,18.0736349 93.6015505,18.9687014 C94.5541671,19.863768 95.6698776,20.3117617 96.9482187,20.3117617 C99.0225692,20.3117617 100.425547,19.4369538 101.15947,17.688259 L103.736539,18.7499995 C103.23382,19.9365152 102.405377,20.931494 101.253527,21.7326338 C100.101213,22.5337737 98.6871147,22.934804 97.0112322,22.934804 Z" id="Fill-11"></path>
                <path d="M113.321131,20.3116696 C114.682873,20.3116696 115.840283,19.8116479 116.793827,18.8125252 C117.746907,17.8129421 118.223678,16.4703423 118.223678,14.7838048 C118.223678,13.0972673 117.746907,11.7546675 116.793827,10.7555448 C115.840283,9.75596173 114.682873,9.2564004 113.321131,9.2564004 C111.979777,9.2564004 110.827463,9.7610264 109.86419,10.7711993 C108.900453,11.7813721 108.418585,13.1184469 108.418585,14.7838048 C108.418585,16.4496231 108.900453,17.7876187 109.86419,18.7968707 C110.827463,19.8065832 111.979777,20.3116696 113.321131,20.3116696 M112.849457,22.9347119 C110.859433,22.9347119 109.141387,22.1538308 107.695782,20.592529 C106.250177,19.0312272 105.527375,17.0951392 105.527375,14.7838048 C105.527375,12.4729308 106.250177,10.5368428 107.695782,8.97508061 C109.141387,7.41377879 110.859433,6.63335809 112.849457,6.63335809 C114.023084,6.63335809 115.075781,6.88290855 116.008474,7.38246988 C116.940704,7.88203121 117.636633,8.50682819 118.098115,9.2564004 L118.223678,9.2564004 L118.098115,7.132459 L118.098115,0.0746012703 L120.989325,0.0746012703 L120.989325,22.4351506 L118.223678,22.4351506 L118.223678,20.3116696 L118.098115,20.3116696 C117.636633,21.0612418 116.940704,21.6855784 116.008474,22.1851397 C115.075781,22.6851615 114.023084,22.9347119 112.849457,22.9347119" id="Fill-13"></path>
            </g>
            <g id="MainLogo">
                <polygon id="Fill-15" fill="#2BE3AD" points="21.0402405 50.8368209 21.0402405 50.1225352 20.3297142 50.8368209"></polygon>
                <polygon id="Fill-17" fill="#2BE3AD" points="0.0245745187 7.98291714 0.0245745187 8.69720285 0.735100834 7.98291714"></polygon>
                <polygon id="Fill-19" fill="#2BE3AD" points="20.8046369 9.19410292 0.0248052877 30.5117492 0.0248052877 31.759101 20.8046369 10.4414548"></polygon>
                <polygon id="Fill-21" fill="#2BE3AD" points="20.8046369 13.6031487 0.0248052877 34.9212683 0.0248052877 36.1681468 20.8046369 14.8505006"></polygon>
                <polygon id="Fill-23" fill="#2BE3AD" points="20.8046369 18.0121944 0.0248052877 39.330314 0.0248052877 40.5776659 20.8046369 19.2595463"></polygon>
                <polygon id="Fill-25" fill="#2BE3AD" points="20.8046369 22.4214295 0.0248052877 43.7390757 0.0248052877 44.9864276 20.8046369 23.6687814"></polygon>
                <polygon id="Fill-27" fill="#2BE3AD" points="20.8046369 26.8304753 0.0248052877 48.1485949 0.0248052877 49.3954734 20.8046369 28.0778271"></polygon>
                <polygon id="Fill-29" fill="#2BE3AD" points="20.8046369 31.2394737 1.92449627 50.6091681 3.14018773 50.6091681 20.8046369 32.4868256"></polygon>
                <polygon id="Fill-31" fill="#2BE3AD" points="20.8046369 35.6482827 6.21772404 50.6089314 7.43341549 50.6089314 20.8046369 36.8951612"></polygon>
                <polygon id="Fill-33" fill="#2BE3AD" points="20.8046369 40.0570918 10.5164903 50.6091681 11.7321817 50.6091681 20.8046369 41.3044437"></polygon>
                <polygon id="Fill-35" fill="#2BE3AD" points="16.0310403 50.6091681 20.8047292 45.713016 20.8047292 44.4661375 14.8153488 50.6091681"></polygon>
                <polygon id="Fill-37" fill="#2BE3AD" points="4.7898635 7.98291714 0.024482211 12.8705484 0.024482211 14.1174269 6.00555495 7.98291714"></polygon>
                <polygon id="Fill-39" fill="#2BE3AD" points="20.3298065 50.6091681 20.8047292 50.1225352 20.8047292 48.8751833 19.114115 50.6091681"></polygon>
                <polygon id="Fill-41" fill="#2BE3AD" points="0.49109727 7.98291714 0.024482211 8.46150262 0.024482211 9.70838114 1.70678873 7.98291714"></polygon>
                <polygon id="Fill-43" fill="#2BE3AD" points="17.6865314 7.98291714 0.0243899034 26.1028928 0.0243899034 27.3502447 18.9022229 7.98291714"></polygon>
                <polygon id="Fill-45" fill="#2BE3AD" points="13.3878113 7.98291714 0.0244360572 21.6933736 0.0244360572 22.9411989 14.6035028 7.98291714"></polygon>
                <polygon id="Fill-47" fill="#2BE3AD" points="9.08904511 7.98291714 0.0244360572 17.2838545 0.0244360572 18.5316798 10.3047366 7.98291714"></polygon>
                <polygon id="Fill-49" fill="#2BE3AD" points="26.1138947 59.9005906 23.1198968 59.2056712 36.1721954 0.0239126359 39.1666549 0.718358643"></polygon>
                <path d="M59.3962407,16.0516507 C52.2645534,16.0516507 46.4828651,21.9811877 46.4828651,29.296303 C46.4828651,36.6114183 52.2645534,42.5409552 59.3962407,42.5409552 C66.527928,42.5409552 72.3096163,36.6114183 72.3096163,29.296303 C72.3096163,21.9811877 66.527928,16.0516507 59.3962407,16.0516507 M59.3962407,18.2590139 C65.329775,18.2590139 70.1570024,23.2105512 70.1570024,29.296303 C70.1570024,35.3820547 65.329775,40.3335921 59.3962407,40.3335921 C53.4627064,40.3335921 48.6350175,35.3820547 48.6350175,29.296303 C48.6350175,23.2105512 53.4627064,18.2590139 59.3962407,18.2590139" id="Fill-51" fill="#FECD2B"></path>
                <path d="M59.3962407,7.22177212 C47.5097875,7.22177212 37.8742558,17.1049648 37.8742558,29.2963503 C37.8742558,41.4872624 47.5097875,51.3704551 59.3962407,51.3704551 C71.282694,51.3704551 80.9186872,41.4872624 80.9186872,29.2963503 C80.9186872,17.1049648 71.282694,7.22177212 59.3962407,7.22177212 M59.3962407,9.42913526 C70.0771563,9.42913526 78.7665349,18.341429 78.7665349,29.2963503 C78.7665349,40.2507982 70.0771563,49.163092 59.3962407,49.163092 C48.7153251,49.163092 40.0264081,40.2507982 40.0264081,29.2963503 C40.0264081,18.341429 48.7153251,9.42913526 59.3962407,9.42913526" id="Fill-53" fill="#4A66F8"></path>
                <path d="M59.3962407,24.8812453 C57.0193193,24.8812453 55.091936,26.8580732 55.091936,29.296445 C55.091936,31.7348167 57.0193193,33.7106979 59.3962407,33.7106979 C61.7731621,33.7106979 63.7005454,31.7348167 63.7005454,29.296445 C63.7005454,26.8580732 61.7731621,24.8812453 59.3962407,24.8812453 M59.3962407,27.0890818 C60.5828553,27.0890818 61.5483931,28.0789159 61.5483931,29.296445 C61.5483931,30.5130273 60.5828553,31.5033347 59.3962407,31.5033347 C58.2096262,31.5033347 57.2440884,30.5130273 57.2440884,29.296445 C57.2440884,28.0789159 58.2096262,27.0890818 59.3962407,27.0890818" id="Fill-55" fill="#FF6001"></path>
            </g>
            <g id="18" transform="translate(90.000000, 10.000000)">
                <path d="M30.7932243,19.8969072 C34.7604201,19.8969072 37.9766355,16.596643 37.9766355,12.5257732 C37.9766355,8.45395725 34.7604201,5.15463918 30.7932243,5.15463918 C26.8260285,5.15463918 23.6098131,8.45395725 23.6098131,12.5257732 C23.6098131,16.596643 26.8260285,19.8969072 30.7932243,19.8969072 M30.7932243,17.8956505 C27.9073204,17.8956505 25.5601032,15.4868574 25.5601032,12.5257732 C25.5601032,9.56445251 27.9073204,7.1549498 30.7932243,7.1549498 C33.6788977,7.1549498 36.0263454,9.56445251 36.0263454,12.5257732 C36.0263454,15.4868574 33.6788977,17.8956505 30.7932243,17.8956505" id="Fill-180" fill="#FF6001"></path>
                <path d="M33.2546729,12.4742268 C33.2546729,13.840062 32.1754238,14.9484536 30.8434579,14.9484536 C29.5112634,14.9484536 28.432243,13.840062 28.432243,12.4742268 C28.432243,11.1074529 29.5112634,10 30.8434579,10 C32.1754238,10 33.2546729,11.1074529 33.2546729,12.4742268" id="Fill-181" fill="#FECD2B"></path>
                <path d="M30.8435732,20.0418523 C26.8215619,20.0418523 23.5492099,23.3987736 23.5492099,27.5258915 C23.5492099,31.6527728 26.8215619,35.0106405 30.8435732,35.0106405 C34.865354,35.0106405 38.137706,31.6527728 38.137706,27.5258915 C38.137706,23.3987736 34.865354,20.0418523 30.8435732,20.0418523 M30.8435732,40 C24.1399904,40 18.6869159,34.4044213 18.6869159,27.5258915 C18.6869159,20.6480716 24.1399904,15.0515464 30.8435732,15.0515464 C37.5460032,15.0515464 43,20.6480716 43,27.5258915 C43,34.4044213 37.5460032,40 30.8435732,40" id="Fill-182" fill="#2BE3AD"></path>
                <polygon id="Fill-183" fill="#FF6001" points="0 39.8969072 14.567757 39.8969072 14.567757 34.9484536 0 34.9484536"></polygon>
                <polygon id="Fill-184" fill="#4A66F8" points="4.82242991 32.4742268 9.64485981 32.4742268 9.64485981 10 4.82242991 10"></polygon>
                <path d="M7.30830214,0 L4.87220142,0 C4.87220142,2.76131082 2.69165676,5 0,5 L0,10 C5.3821582,10 9.7453271,5.52333302 9.7453271,0 L7.30830214,0 Z" id="Fill-185" fill="#2BE3AD"></path>
                <path d="M30.8435732,24.9484536 C37.556841,24.9484536 43,19.3628659 43,12.4742268 C43,5.58464123 37.556841,0 30.8435732,0 C24.1291525,0 18.6869159,5.58464123 18.6869159,12.4742268 C18.6869159,19.3628659 24.1291525,24.9484536 30.8435732,24.9484536 M30.8435732,22.9464347 C25.2154783,22.9464347 20.6379673,18.2491083 20.6379673,12.4742268 C20.6379673,6.70029174 25.2154783,2.0010724 30.8435732,2.0010724 C36.4705152,2.0010724 41.0491792,6.70029174 41.0491792,12.4742268 C41.0491792,18.2491083 36.4705152,22.9464347 30.8435732,22.9464347" id="Fill-186" fill="#4A66F8"></path>
            </g>
        </g>
    </g>
</svg>