<?xml version="1.0" encoding="UTF-8"?>
<svg width="381px" height="388px" viewBox="0 0 381 388" version="1.1" xmlns="http://www.w3.org/2000/svg" xmlns:xlink="http://www.w3.org/1999/xlink">
    <!-- Generator: Sketch 49.2 (51160) - http://www.bohemiancoding.com/sketch -->
    <title>Untitled</title>
    <desc>Created with Sketch.</desc>
    <defs></defs>
    <g id="Page-1" stroke="none" stroke-width="1" fill="none" fill-rule="evenodd">
        <g id="MainLogo" transform="translate(12.000000, 21.000000)">
            <polygon id="Fill-15" fill="#2BE3AD" points="42 94 42 92 40 94"></polygon>
            <polygon id="Fill-17" fill="#2BE3AD" points="0 15 0 17 2 15"></polygon>
            <polygon id="Fill-19" fill="#2BE3AD" points="41 18 0 56.7335949 0 59 41 20.2664051"></polygon>
            <polygon id="Fill-21" fill="#2BE3AD" points="41 25 0 63.734455 0 66 41 27.2664051"></polygon>
            <polygon id="Fill-23" fill="#2BE3AD" points="41 33 0 71.7336424 0 74 41 35.2663576"></polygon>
            <polygon id="Fill-25" fill="#2BE3AD" points="41 41 0 79.7335949 0 82 41 43.2664051"></polygon>
            <polygon id="Fill-27" fill="#2BE3AD" points="41 49 0 87.734455 0 90 41 51.2664051"></polygon>
            <polygon id="Fill-29" fill="#2BE3AD" points="41 57 3 93 5.44681839 93 41 59.3182951"></polygon>
            <polygon id="Fill-31" fill="#2BE3AD" points="43 66 13 94 15.5002373 94 43 68.3336287"></polygon>
            <polygon id="Fill-33" fill="#2BE3AD" points="42 74 21 94 23.4814499 94 42 76.3641829"></polygon>
            <polygon id="Fill-35" fill="#2BE3AD" points="32.6386684 93 43 84.2327194 43 82 30 93"></polygon>
            <polygon id="Fill-37" fill="#2BE3AD" points="10.3576665 15 0 23.7641793 0 26 13 15"></polygon>
            <polygon id="Fill-39" fill="#2BE3AD" points="40.1572482 93 41 92.1580672 41 90 38 93"></polygon>
            <polygon id="Fill-41" fill="#2BE3AD" points="0.832098765 15 0 15.8320988 0 18 3 15"></polygon>
            <polygon id="Fill-43" fill="#2BE3AD" points="35.5528825 15 0 48.6814216 0 51 38 15"></polygon>
            <polygon id="Fill-45" fill="#2BE3AD" points="27.4984171 15 0 40.6642299 0 43 30 15"></polygon>
            <polygon id="Fill-47" fill="#2BE3AD" points="18.5166562 15 0 32.634177 0 35 21 15"></polygon>
            <polygon id="Fill-49" fill="#2BE3AD" points="53.1571272 110 47 108.723357 73.8419236 0 80 1.2757732"></polygon>
            <path d="M120,30 C105.640945,30 94,40.9684764 94,54.5 C94,68.0315236 105.640945,79 120,79 C134.359055,79 146,68.0315236 146,54.5 C146,40.9684764 134.359055,30 120,30 M120,34.0831874 C131.946674,34.0831874 141.665892,43.2425569 141.665892,54.5 C141.665892,65.7574431 131.946674,74.9168126 120,74.9168126 C108.053326,74.9168126 98.3331785,65.7574431 98.3331785,54.5 C98.3331785,43.2425569 108.053326,34.0831874 120,34.0831874" id="Fill-51" fill="#FECD2B"></path>
            <path d="M118.499544,13 C95.0273206,13 76,30.9089242 76,53.0004289 C76,75.0910758 95.0273206,93 118.499544,93 C141.971768,93 161,75.0910758 161,53.0004289 C161,30.9089242 141.971768,13 118.499544,13 M118.499544,16.9998713 C139.591188,16.9998713 156.750137,33.1494698 156.750137,53.0004289 C156.750137,72.8505302 139.591188,89.0001287 118.499544,89.0001287 C97.4079002,89.0001287 80.2498633,72.8505302 80.2498633,53.0004289 C80.2498633,33.1494698 97.4079002,16.9998713 118.499544,16.9998713" id="Fill-53" fill="#4A66F8"></path>
            <path d="M118,46 C113.030024,46 109,49.5822432 109,54.0008578 C109,58.4194724 113.030024,62 118,62 C122.969976,62 127,58.4194724 127,54.0008578 C127,49.5822432 122.969976,46 118,46 M118,50.0008578 C120.481128,50.0008578 122.5,51.7945529 122.5,54.0008578 C122.5,56.2054471 120.481128,58 118,58 C115.518872,58 113.5,56.2054471 113.5,54.0008578 C113.5,51.7945529 115.518872,50.0008578 118,50.0008578" id="Fill-55" fill="#FF6001"></path>
        </g>
        <g id="18" transform="translate(252.000000, 27.000000)">
            <path d="M75.5,48 C85.1647574,48 93,40.1647574 93,30.5 C93,20.8329964 85.1647574,13 75.5,13 C65.8352426,13 58,20.8329964 58,30.5 C58,40.1647574 65.8352426,48 75.5,48 M75.5,43.2487646 C68.4694519,43.2487646 62.7512354,37.5299865 62.7512354,30.5 C62.7512354,23.4694519 68.4694519,17.7489892 75.5,17.7489892 C82.5299865,17.7489892 88.2487646,23.4694519 88.2487646,30.5 C88.2487646,37.5299865 82.5299865,43.2487646 75.5,43.2487646" id="Fill-180" fill="#FF6001"></path>
            <path d="M80,31 C80,34.3121502 77.5382244,37 74.5,37 C71.4612539,37 69,34.3121502 69,31 C69,27.6855734 71.4612539,25 74.5,25 C77.5382244,25 80,27.6855734 80,31" id="Fill-181" fill="#FECD2B"></path>
            <path d="M75.5002798,49.0014796 C65.7401576,49.0014796 57.7992166,57.0747366 57.7992166,67.0002845 C57.7992166,76.9252634 65.7401576,85.0007967 75.5002798,85.0007967 C85.2598424,85.0007967 93.2007834,76.9252634 93.2007834,67.0002845 C93.2007834,57.0747366 85.2598424,49.0014796 75.5002798,49.0014796 M75.5002798,97 C59.2328499,97 46,83.5428645 46,67.0002845 C46,50.4594118 59.2328499,37 75.5002798,37 C91.7649117,37 105,50.4594118 105,67.0002845 C105,83.5428645 91.7649117,97 75.5002798,97" id="Fill-182" fill="#2BE3AD"></path>
            <polygon id="Fill-183" fill="#FF6001" points="0 96 36 96 36 84 0 84"></polygon>
            <polygon id="Fill-184" fill="#4A66F8" points="11 81 22 81 22 25 11 25"></polygon>
            <path d="M17.248364,0 L11.4989093,0 C11.4989093,6.90327706 6.35259389,12.5 0,12.5 L0,25 C12.7024611,25 23,13.8083325 23,0 L17.248364,0 Z" id="Fill-185" fill="#2BE3AD"></path>
            <path d="M75.5002798,60 C91.7912118,60 105,46.5668924 105,30 C105,13.4308314 91.7912118,0 75.5002798,0 C59.2065499,0 46,13.4308314 46,30 C46,46.5668924 59.2065499,60 75.5002798,60 M75.5002798,55.1852273 C61.8427118,55.1852273 50.7345714,43.8883514 50.7345714,30 C50.7345714,16.1139248 61.8427118,4.81249644 75.5002798,4.81249644 C89.1550499,4.81249644 100.265988,16.1139248 100.265988,30 C100.265988,43.8883514 89.1550499,55.1852273 75.5002798,55.1852273" id="Fill-186" fill="#4A66F8"></path>
        </g>
        <g id="MainLogo" transform="translate(12.000000, 139.000000)">
            <polygon id="Fill-15" fill="#2BE3AD" points="42 94 42 92 40 94"></polygon>
            <polygon id="Fill-17" fill="#2BE3AD" points="0 15 0 17 2 15"></polygon>
            <polygon id="Fill-19" fill="#2BE3AD" points="41 18 0 56.7335949 0 59 41 20.2664051"></polygon>
            <polygon id="Fill-21" fill="#2BE3AD" points="41 25 0 63.734455 0 66 41 27.2664051"></polygon>
            <polygon id="Fill-23" fill="#2BE3AD" points="41 33 0 71.7336424 0 74 41 35.2663576"></polygon>
            <polygon id="Fill-25" fill="#2BE3AD" points="41 41 0 79.7335949 0 82 41 43.2664051"></polygon>
            <polygon id="Fill-27" fill="#2BE3AD" points="41 49 0 87.734455 0 90 41 51.2664051"></polygon>
            <polygon id="Fill-29" fill="#2BE3AD" points="41 57 3 93 5.44681839 93 41 59.3182951"></polygon>
            <polygon id="Fill-31" fill="#2BE3AD" points="43 66 13 94 15.5002373 94 43 68.3336287"></polygon>
            <polygon id="Fill-33" fill="#2BE3AD" points="42 74 21 94 23.4814499 94 42 76.3641829"></polygon>
            <polygon id="Fill-35" fill="#2BE3AD" points="32.6386684 93 43 84.2327194 43 82 30 93"></polygon>
            <polygon id="Fill-37" fill="#2BE3AD" points="10.3576665 15 0 23.7641793 0 26 13 15"></polygon>
            <polygon id="Fill-39" fill="#2BE3AD" points="40.1572482 93 41 92.1580672 41 90 38 93"></polygon>
            <polygon id="Fill-41" fill="#2BE3AD" points="0.832098765 15 0 15.8320988 0 18 3 15"></polygon>
            <polygon id="Fill-43" fill="#2BE3AD" points="35.5528825 15 0 48.6814216 0 51 38 15"></polygon>
            <polygon id="Fill-45" fill="#2BE3AD" points="27.4984171 15 0 40.6642299 0 43 30 15"></polygon>
            <polygon id="Fill-47" fill="#2BE3AD" points="18.5166562 15 0 32.634177 0 35 21 15"></polygon>
            <polygon id="Fill-49" fill="#2BE3AD" points="53.1571272 110 47 108.723357 73.8419236 0 80 1.2757732"></polygon>
            <path d="M120,30 C105.640945,30 94,40.9684764 94,54.5 C94,68.0315236 105.640945,79 120,79 C134.359055,79 146,68.0315236 146,54.5 C146,40.9684764 134.359055,30 120,30 M120,34.0831874 C131.946674,34.0831874 141.665892,43.2425569 141.665892,54.5 C141.665892,65.7574431 131.946674,74.9168126 120,74.9168126 C108.053326,74.9168126 98.3331785,65.7574431 98.3331785,54.5 C98.3331785,43.2425569 108.053326,34.0831874 120,34.0831874" id="Fill-51" fill="#FECD2B"></path>
            <path d="M118.499544,13 C95.0273206,13 76,30.9089242 76,53.0004289 C76,75.0910758 95.0273206,93 118.499544,93 C141.971768,93 161,75.0910758 161,53.0004289 C161,30.9089242 141.971768,13 118.499544,13 M118.499544,16.9998713 C139.591188,16.9998713 156.750137,33.1494698 156.750137,53.0004289 C156.750137,72.8505302 139.591188,89.0001287 118.499544,89.0001287 C97.4079002,89.0001287 80.2498633,72.8505302 80.2498633,53.0004289 C80.2498633,33.1494698 97.4079002,16.9998713 118.499544,16.9998713" id="Fill-53" fill="#4A66F8"></path>
            <path d="M118,46 C113.030024,46 109,49.5822432 109,54.0008578 C109,58.4194724 113.030024,62 118,62 C122.969976,62 127,58.4194724 127,54.0008578 C127,49.5822432 122.969976,46 118,46 M118,50.0008578 C120.481128,50.0008578 122.5,51.7945529 122.5,54.0008578 C122.5,56.2054471 120.481128,58 118,58 C115.518872,58 113.5,56.2054471 113.5,54.0008578 C113.5,51.7945529 115.518872,50.0008578 118,50.0008578" id="Fill-55" fill="#FF6001"></path>
        </g>
        <g id="18" transform="translate(252.000000, 145.000000)">
            <path d="M75.5,48 C85.1647574,48 93,40.1647574 93,30.5 C93,20.8329964 85.1647574,13 75.5,13 C65.8352426,13 58,20.8329964 58,30.5 C58,40.1647574 65.8352426,48 75.5,48 M75.5,43.2487646 C68.4694519,43.2487646 62.7512354,37.5299865 62.7512354,30.5 C62.7512354,23.4694519 68.4694519,17.7489892 75.5,17.7489892 C82.5299865,17.7489892 88.2487646,23.4694519 88.2487646,30.5 C88.2487646,37.5299865 82.5299865,43.2487646 75.5,43.2487646" id="Fill-180" fill="#FF6001"></path>
            <path d="M80,31 C80,34.3121502 77.5382244,37 74.5,37 C71.4612539,37 69,34.3121502 69,31 C69,27.6855734 71.4612539,25 74.5,25 C77.5382244,25 80,27.6855734 80,31" id="Fill-181" fill="#FECD2B"></path>
            <path d="M75.5002798,49.0014796 C65.7401576,49.0014796 57.7992166,57.0747366 57.7992166,67.0002845 C57.7992166,76.9252634 65.7401576,85.0007967 75.5002798,85.0007967 C85.2598424,85.0007967 93.2007834,76.9252634 93.2007834,67.0002845 C93.2007834,57.0747366 85.2598424,49.0014796 75.5002798,49.0014796 M75.5002798,97 C59.2328499,97 46,83.5428645 46,67.0002845 C46,50.4594118 59.2328499,37 75.5002798,37 C91.7649117,37 105,50.4594118 105,67.0002845 C105,83.5428645 91.7649117,97 75.5002798,97" id="Fill-182" fill="#2BE3AD"></path>
            <polygon id="Fill-183" fill="#FF6001" points="0 96 36 96 36 84 0 84"></polygon>
            <polygon id="Fill-184" fill="#4A66F8" points="11 81 22 81 22 25 11 25"></polygon>
            <path d="M17.248364,0 L11.4989093,0 C11.4989093,6.90327706 6.35259389,12.5 0,12.5 L0,25 C12.7024611,25 23,13.8083325 23,0 L17.248364,0 Z" id="Fill-185" fill="#2BE3AD"></path>
            <path d="M75.5002798,60 C91.7912118,60 105,46.5668924 105,30 C105,13.4308314 91.7912118,0 75.5002798,0 C59.2065499,0 46,13.4308314 46,30 C46,46.5668924 59.2065499,60 75.5002798,60 M75.5002798,55.1852273 C61.8427118,55.1852273 50.7345714,43.8883514 50.7345714,30 C50.7345714,16.1139248 61.8427118,4.81249644 75.5002798,4.81249644 C89.1550499,4.81249644 100.265988,16.1139248 100.265988,30 C100.265988,43.8883514 89.1550499,55.1852273 75.5002798,55.1852273" id="Fill-186" fill="#4A66F8"></path>
        </g>
        <g id="MainLogo" transform="translate(12.000000, 249.000000)">
            <polygon id="Fill-15" fill="#2BE3AD" points="42 94 42 92 40 94"></polygon>
            <polygon id="Fill-17" fill="#2BE3AD" points="0 15 0 17 2 15"></polygon>
            <polygon id="Fill-19" fill="#2BE3AD" points="41 18 0 56.7335949 0 59 41 20.2664051"></polygon>
            <polygon id="Fill-21" fill="#2BE3AD" points="41 25 0 63.734455 0 66 41 27.2664051"></polygon>
            <polygon id="Fill-23" fill="#2BE3AD" points="41 33 0 71.7336424 0 74 41 35.2663576"></polygon>
            <polygon id="Fill-25" fill="#2BE3AD" points="41 41 0 79.7335949 0 82 41 43.2664051"></polygon>
            <polygon id="Fill-27" fill="#2BE3AD" points="41 49 0 87.734455 0 90 41 51.2664051"></polygon>
            <polygon id="Fill-29" fill="#2BE3AD" points="41 57 3 93 5.44681839 93 41 59.3182951"></polygon>
            <polygon id="Fill-31" fill="#2BE3AD" points="43 66 13 94 15.5002373 94 43 68.3336287"></polygon>
            <polygon id="Fill-33" fill="#2BE3AD" points="42 74 21 94 23.4814499 94 42 76.3641829"></polygon>
            <polygon id="Fill-35" fill="#2BE3AD" points="32.6386684 93 43 84.2327194 43 82 30 93"></polygon>
            <polygon id="Fill-37" fill="#2BE3AD" points="10.3576665 15 0 23.7641793 0 26 13 15"></polygon>
            <polygon id="Fill-39" fill="#2BE3AD" points="40.1572482 93 41 92.1580672 41 90 38 93"></polygon>
            <polygon id="Fill-41" fill="#2BE3AD" points="0.832098765 15 0 15.8320988 0 18 3 15"></polygon>
            <polygon id="Fill-43" fill="#2BE3AD" points="35.5528825 15 0 48.6814216 0 51 38 15"></polygon>
            <polygon id="Fill-45" fill="#2BE3AD" points="27.4984171 15 0 40.6642299 0 43 30 15"></polygon>
            <polygon id="Fill-47" fill="#2BE3AD" points="18.5166562 15 0 32.634177 0 35 21 15"></polygon>
            <polygon id="Fill-49" fill="#2BE3AD" points="53.1571272 110 47 108.723357 73.8419236 0 80 1.2757732"></polygon>
            <path d="M120,30 C105.640945,30 94,40.9684764 94,54.5 C94,68.0315236 105.640945,79 120,79 C134.359055,79 146,68.0315236 146,54.5 C146,40.9684764 134.359055,30 120,30 M120,34.0831874 C131.946674,34.0831874 141.665892,43.2425569 141.665892,54.5 C141.665892,65.7574431 131.946674,74.9168126 120,74.9168126 C108.053326,74.9168126 98.3331785,65.7574431 98.3331785,54.5 C98.3331785,43.2425569 108.053326,34.0831874 120,34.0831874" id="Fill-51" fill="#FECD2B"></path>
            <path d="M118.499544,13 C95.0273206,13 76,30.9089242 76,53.0004289 C76,75.0910758 95.0273206,93 118.499544,93 C141.971768,93 161,75.0910758 161,53.0004289 C161,30.9089242 141.971768,13 118.499544,13 M118.499544,16.9998713 C139.591188,16.9998713 156.750137,33.1494698 156.750137,53.0004289 C156.750137,72.8505302 139.591188,89.0001287 118.499544,89.0001287 C97.4079002,89.0001287 80.2498633,72.8505302 80.2498633,53.0004289 C80.2498633,33.1494698 97.4079002,16.9998713 118.499544,16.9998713" id="Fill-53" fill="#4A66F8"></path>
            <path d="M118,46 C113.030024,46 109,49.5822432 109,54.0008578 C109,58.4194724 113.030024,62 118,62 C122.969976,62 127,58.4194724 127,54.0008578 C127,49.5822432 122.969976,46 118,46 M118,50.0008578 C120.481128,50.0008578 122.5,51.7945529 122.5,54.0008578 C122.5,56.2054471 120.481128,58 118,58 C115.518872,58 113.5,56.2054471 113.5,54.0008578 C113.5,51.7945529 115.518872,50.0008578 118,50.0008578" id="Fill-55" fill="#FF6001"></path>
        </g>
        <g id="18" transform="translate(252.000000, 255.000000)">
            <path d="M75.5,48 C85.1647574,48 93,40.1647574 93,30.5 C93,20.8329964 85.1647574,13 75.5,13 C65.8352426,13 58,20.8329964 58,30.5 C58,40.1647574 65.8352426,48 75.5,48 M75.5,43.2487646 C68.4694519,43.2487646 62.7512354,37.5299865 62.7512354,30.5 C62.7512354,23.4694519 68.4694519,17.7489892 75.5,17.7489892 C82.5299865,17.7489892 88.2487646,23.4694519 88.2487646,30.5 C88.2487646,37.5299865 82.5299865,43.2487646 75.5,43.2487646" id="Fill-180" fill="#FF6001"></path>
            <path d="M80,31 C80,34.3121502 77.5382244,37 74.5,37 C71.4612539,37 69,34.3121502 69,31 C69,27.6855734 71.4612539,25 74.5,25 C77.5382244,25 80,27.6855734 80,31" id="Fill-181" fill="#FECD2B"></path>
            <path d="M75.5002798,49.0014796 C65.7401576,49.0014796 57.7992166,57.0747366 57.7992166,67.0002845 C57.7992166,76.9252634 65.7401576,85.0007967 75.5002798,85.0007967 C85.2598424,85.0007967 93.2007834,76.9252634 93.2007834,67.0002845 C93.2007834,57.0747366 85.2598424,49.0014796 75.5002798,49.0014796 M75.5002798,97 C59.2328499,97 46,83.5428645 46,67.0002845 C46,50.4594118 59.2328499,37 75.5002798,37 C91.7649117,37 105,50.4594118 105,67.0002845 C105,83.5428645 91.7649117,97 75.5002798,97" id="Fill-182" fill="#2BE3AD"></path>
            <polygon id="Fill-183" fill="#FF6001" points="0 96 36 96 36 84 0 84"></polygon>
            <polygon id="Fill-184" fill="#4A66F8" points="11 81 22 81 22 25 11 25"></polygon>
            <path d="M17.248364,0 L11.4989093,0 C11.4989093,6.90327706 6.35259389,12.5 0,12.5 L0,25 C12.7024611,25 23,13.8083325 23,0 L17.248364,0 Z" id="Fill-185" fill="#2BE3AD"></path>
            <path d="M75.5002798,60 C91.7912118,60 105,46.5668924 105,30 C105,13.4308314 91.7912118,0 75.5002798,0 C59.2065499,0 46,13.4308314 46,30 C46,46.5668924 59.2065499,60 75.5002798,60 M75.5002798,55.1852273 C61.8427118,55.1852273 50.7345714,43.8883514 50.7345714,30 C50.7345714,16.1139248 61.8427118,4.81249644 75.5002798,4.81249644 C89.1550499,4.81249644 100.265988,16.1139248 100.265988,30 C100.265988,43.8883514 89.1550499,55.1852273 75.5002798,55.1852273" id="Fill-186" fill="#4A66F8"></path>
        </g>
    </g>
</svg>