<?xml version="1.0" encoding="UTF-8"?>
<svg width="183px" height="171px" viewBox="0 0 183 171" version="1.1" xmlns="http://www.w3.org/2000/svg" xmlns:xlink="http://www.w3.org/1999/xlink">
    <!-- Generator: Sketch 49.2 (51160) - http://www.bohemiancoding.com/sketch -->
    <title>logo-gdgcuiaba2</title>
    <desc>Created with Sketch.</desc>
    <defs></defs>
    <g id="Page-1" stroke="none" stroke-width="1" fill="none" fill-rule="evenodd">
        <g id="kkkkkk2">
            <g id="Group">
                <g id="MainLogo">
                    <polygon id="Fill-15" fill="#2BE3AD" points="21.4285714 47.7631579 21.4285714 46.3157895 20 47.7631579"></polygon>
                    <polygon id="Fill-17" fill="#2BE3AD" points="0 7.23684211 0 8.68421053 1.42857143 7.23684211"></polygon>
                    <polygon id="Fill-19" fill="#2BE3AD" points="20 8.68421053 0 27.8272581 0 28.9473684 20 9.80432089"></polygon>
                    <polygon id="Fill-21" fill="#2BE3AD" points="20 13.0263158 0 32.1697884 0 33.2894737 20 14.1464262"></polygon>
                    <polygon id="Fill-23" fill="#2BE3AD" points="20 15.9210526 0 35.0641237 0 36.1842105 20 17.0411395"></polygon>
                    <polygon id="Fill-25" fill="#2BE3AD" points="20 20.2631579 0 39.4062054 0 40.5263158 20 21.3832683"></polygon>
                    <polygon id="Fill-27" fill="#2BE3AD" points="20 24.6052632 0 43.7487358 0 44.8684211 20 25.7253735"></polygon>
                    <polygon id="Fill-29" fill="#2BE3AD" points="20 28.9473684 1.42857143 46.3157895 2.62438493 46.3157895 20 30.0658441"></polygon>
                    <polygon id="Fill-31" fill="#2BE3AD" points="21.4285714 33.2894737 7.14285714 47.7631579 8.33344634 47.7631579 21.4285714 34.4957667"></polygon>
                    <polygon id="Fill-33" fill="#2BE3AD" points="20 37.6315789 10 47.7631579 11.1816428 47.7631579 20 38.8292242"></polygon>
                    <polygon id="Fill-35" fill="#2BE3AD" points="15.7355321 46.3157895 21.4285714 41.7014313 21.4285714 40.5263158 14.2857143 46.3157895"></polygon>
                    <polygon id="Fill-37" fill="#2BE3AD" points="5.69102554 7.23684211 0 11.8495681 0 13.0263158 7.14285714 7.23684211"></polygon>
                    <polygon id="Fill-39" fill="#2BE3AD" points="19.5986896 46.3157895 20 45.9095938 20 44.8684211 18.5714286 46.3157895"></polygon>
                    <polygon id="Fill-41" fill="#2BE3AD" points="0.396237507 7.23684211 0 7.63829326 0 8.68421053 1.42857143 7.23684211"></polygon>
                    <polygon id="Fill-43" fill="#2BE3AD" points="17.3754689 7.23684211 0 23.4866507 0 24.6052632 18.5714286 7.23684211"></polygon>
                    <polygon id="Fill-45" fill="#2BE3AD" points="13.0944843 7.23684211 0 20.5031263 0 21.7105263 14.2857143 7.23684211"></polygon>
                    <polygon id="Fill-47" fill="#2BE3AD" points="8.81745533 7.23684211 0 16.1699449 0 17.3684211 10 7.23684211"></polygon>
                    <polygon id="Fill-49" fill="#2BE3AD" points="25.7891082 55 22.8571429 54.3616786 35.6390112 0 38.5714286 0.637886598"></polygon>
                    <path d="M60,14.4736842 C52.8993684,14.4736842 47.1428571,19.9814852 47.1428571,26.7763158 C47.1428571,33.5711464 52.8993684,39.0789474 60,39.0789474 C67.1006316,39.0789474 72.8571429,33.5711464 72.8571429,26.7763158 C72.8571429,19.9814852 67.1006316,14.4736842 60,14.4736842 M60,16.5240495 C65.9076961,16.5240495 70.7139028,21.1234107 70.7139028,26.7763158 C70.7139028,32.4292209 65.9076961,37.0285821 60,37.0285821 C54.0923039,37.0285821 49.2856377,32.4292209 49.2856377,26.7763158 C49.2856377,21.1234107 54.0923039,16.5240495 60,16.5240495" id="Fill-51" fill="#FECD2B"></path>
                    <path d="M58.5711988,5.78947368 C46.7364642,5.78947368 37.1428571,14.8617577 37.1428571,26.0528488 C37.1428571,37.2435055 46.7364642,46.3157895 58.5711988,46.3157895 C70.4059335,46.3157895 80,37.2435055 80,26.0528488 C80,14.8617577 70.4059335,5.78947368 58.5711988,5.78947368 M58.5711988,7.81572429 C69.2056412,7.81572429 77.8572118,15.9967709 77.8572118,26.0528488 C77.8572118,36.1084923 69.2056412,44.2895389 58.5711988,44.2895389 C47.9367564,44.2895389 39.2856454,36.1084923 39.2856454,26.0528488 C39.2856454,15.9967709 47.9367564,7.81572429 58.5711988,7.81572429" id="Fill-53" fill="#4A66F8"></path>
                    <path d="M58.5714286,23.1578947 C56.2047731,23.1578947 54.2857143,25.1022044 54.2857143,27.5004656 C54.2857143,29.8987268 56.2047731,31.8421053 58.5714286,31.8421053 C60.938084,31.8421053 62.8571429,29.8987268 62.8571429,27.5004656 C62.8571429,25.1022044 60.938084,23.1578947 58.5714286,23.1578947 M59.2857143,26.0526316 C60.4672038,26.0526316 61.4285714,27.0262876 61.4285714,28.223917 C61.4285714,29.4206152 60.4672038,30.3947368 59.2857143,30.3947368 C58.1042247,30.3947368 57.1428571,29.4206152 57.1428571,28.223917 C57.1428571,27.0262876 58.1042247,26.0526316 59.2857143,26.0526316" id="Fill-55" fill="#FF6001"></path>
                </g>
                <g id="18" transform="translate(126.000000, 5.000000)">
                    <path d="M40.5,24 C45.7465826,24 50,20.1943107 50,15.5 C50,10.8045983 45.7465826,7 40.5,7 C35.2534174,7 31,10.8045983 31,15.5 C31,20.1943107 35.2534174,24 40.5,24 M40.5,21.6922571 C36.6834168,21.6922571 33.5792421,18.9145649 33.5792421,15.5 C33.5792421,12.0851624 36.6834168,9.30665191 40.5,9.30665191 C44.3162784,9.30665191 47.4207579,12.0851624 47.4207579,15.5 C47.4207579,18.9145649 44.3162784,21.6922571 40.5,21.6922571" id="Fill-180" fill="#FF6001"></path>
                    <path d="M43,14.5 C43,15.8800626 41.6572133,17 40,17 C38.3425021,17 37,15.8800626 37,14.5 C37,13.1189889 38.3425021,12 40,12 C41.6572133,12 43,13.1189889 43,14.5" id="Fill-181" fill="#FECD2B"></path>
                    <path d="M40.5001565,22.8007151 C35.0411051,22.8007151 30.5995618,26.7027893 30.5995618,31.5001375 C30.5995618,36.2972107 35.0411051,40.2003851 40.5001565,40.2003851 C45.9588949,40.2003851 50.4004382,36.2972107 50.4004382,31.5001375 C50.4004382,26.7027893 45.9588949,22.8007151 40.5001565,22.8007151 M40.5001565,46 C31.4014245,46 24,39.4957178 24,31.5001375 C24,23.5053824 31.4014245,17 40.5001565,17 C49.5973235,17 57,23.5053824 57,31.5001375 C57,39.4957178 49.5973235,46 40.5001565,46" id="Fill-182" fill="#2BE3AD"></path>
                    <polygon id="Fill-183" fill="#FF6001" points="0 44 20 44 20 39 0 39"></polygon>
                    <polygon id="Fill-184" fill="#4A66F8" points="6 38 12 38 12 12 6 12"></polygon>
                    <path d="M8.99914643,0 L5.99943096,0 C5.99943096,3.31357299 3.31439681,6 0,6 L0,12 C6.62737102,12 12,6.62799962 12,0 L8.99914643,0 Z" id="Fill-185" fill="#2BE3AD"></path>
                    <path d="M40.5001565,29 C49.6120337,29 57,22.5073313 57,14.5 C57,6.4915685 49.6120337,0 40.5001565,0 C31.3867143,0 24,6.4915685 24,14.5 C24,22.5073313 31.3867143,29 40.5001565,29 M40.5001565,26.6728599 C32.8611778,26.6728599 26.6481501,21.2127032 26.6481501,14.5 C26.6481501,7.78839697 32.8611778,2.32603995 40.5001565,2.32603995 C48.1375703,2.32603995 54.3521629,7.78839697 54.3521629,14.5 C54.3521629,21.2127032 48.1375703,26.6728599 40.5001565,26.6728599" id="Fill-186" fill="#4A66F8"></path>
                </g>
            </g>
            <g id="Group" transform="translate(0.000000, 55.000000)">
                <g id="MainLogo">
                    <polygon id="Fill-15" fill="#2BE3AD" points="21.4285714 47.7631579 21.4285714 46.3157895 20 47.7631579"></polygon>
                    <polygon id="Fill-17" fill="#2BE3AD" points="0 7.23684211 0 8.68421053 1.42857143 7.23684211"></polygon>
                    <polygon id="Fill-19" fill="#2BE3AD" points="20 8.68421053 0 27.8272581 0 28.9473684 20 9.80432089"></polygon>
                    <polygon id="Fill-21" fill="#2BE3AD" points="20 13.0263158 0 32.1697884 0 33.2894737 20 14.1464262"></polygon>
                    <polygon id="Fill-23" fill="#2BE3AD" points="20 15.9210526 0 35.0641237 0 36.1842105 20 17.0411395"></polygon>
                    <polygon id="Fill-25" fill="#2BE3AD" points="20 20.2631579 0 39.4062054 0 40.5263158 20 21.3832683"></polygon>
                    <polygon id="Fill-27" fill="#2BE3AD" points="20 24.6052632 0 43.7487358 0 44.8684211 20 25.7253735"></polygon>
                    <polygon id="Fill-29" fill="#2BE3AD" points="20 28.9473684 1.42857143 46.3157895 2.62438493 46.3157895 20 30.0658441"></polygon>
                    <polygon id="Fill-31" fill="#2BE3AD" points="21.4285714 33.2894737 7.14285714 47.7631579 8.33344634 47.7631579 21.4285714 34.4957667"></polygon>
                    <polygon id="Fill-33" fill="#2BE3AD" points="20 37.6315789 10 47.7631579 11.1816428 47.7631579 20 38.8292242"></polygon>
                    <polygon id="Fill-35" fill="#2BE3AD" points="15.7355321 46.3157895 21.4285714 41.7014313 21.4285714 40.5263158 14.2857143 46.3157895"></polygon>
                    <polygon id="Fill-37" fill="#2BE3AD" points="5.69102554 7.23684211 0 11.8495681 0 13.0263158 7.14285714 7.23684211"></polygon>
                    <polygon id="Fill-39" fill="#2BE3AD" points="19.5986896 46.3157895 20 45.9095938 20 44.8684211 18.5714286 46.3157895"></polygon>
                    <polygon id="Fill-41" fill="#2BE3AD" points="0.396237507 7.23684211 0 7.63829326 0 8.68421053 1.42857143 7.23684211"></polygon>
                    <polygon id="Fill-43" fill="#2BE3AD" points="17.3754689 7.23684211 0 23.4866507 0 24.6052632 18.5714286 7.23684211"></polygon>
                    <polygon id="Fill-45" fill="#2BE3AD" points="13.0944843 7.23684211 0 20.5031263 0 21.7105263 14.2857143 7.23684211"></polygon>
                    <polygon id="Fill-47" fill="#2BE3AD" points="8.81745533 7.23684211 0 16.1699449 0 17.3684211 10 7.23684211"></polygon>
                    <polygon id="Fill-49" fill="#2BE3AD" points="25.7891082 55 22.8571429 54.3616786 35.6390112 0 38.5714286 0.637886598"></polygon>
                    <path d="M60,14.4736842 C52.8993684,14.4736842 47.1428571,19.9814852 47.1428571,26.7763158 C47.1428571,33.5711464 52.8993684,39.0789474 60,39.0789474 C67.1006316,39.0789474 72.8571429,33.5711464 72.8571429,26.7763158 C72.8571429,19.9814852 67.1006316,14.4736842 60,14.4736842 M60,16.5240495 C65.9076961,16.5240495 70.7139028,21.1234107 70.7139028,26.7763158 C70.7139028,32.4292209 65.9076961,37.0285821 60,37.0285821 C54.0923039,37.0285821 49.2856377,32.4292209 49.2856377,26.7763158 C49.2856377,21.1234107 54.0923039,16.5240495 60,16.5240495" id="Fill-51" fill="#FECD2B"></path>
                    <path d="M58.5711988,5.78947368 C46.7364642,5.78947368 37.1428571,14.8617577 37.1428571,26.0528488 C37.1428571,37.2435055 46.7364642,46.3157895 58.5711988,46.3157895 C70.4059335,46.3157895 80,37.2435055 80,26.0528488 C80,14.8617577 70.4059335,5.78947368 58.5711988,5.78947368 M58.5711988,7.81572429 C69.2056412,7.81572429 77.8572118,15.9967709 77.8572118,26.0528488 C77.8572118,36.1084923 69.2056412,44.2895389 58.5711988,44.2895389 C47.9367564,44.2895389 39.2856454,36.1084923 39.2856454,26.0528488 C39.2856454,15.9967709 47.9367564,7.81572429 58.5711988,7.81572429" id="Fill-53" fill="#4A66F8"></path>
                    <path d="M58.5714286,23.1578947 C56.2047731,23.1578947 54.2857143,25.1022044 54.2857143,27.5004656 C54.2857143,29.8987268 56.2047731,31.8421053 58.5714286,31.8421053 C60.938084,31.8421053 62.8571429,29.8987268 62.8571429,27.5004656 C62.8571429,25.1022044 60.938084,23.1578947 58.5714286,23.1578947 M59.2857143,26.0526316 C60.4672038,26.0526316 61.4285714,27.0262876 61.4285714,28.223917 C61.4285714,29.4206152 60.4672038,30.3947368 59.2857143,30.3947368 C58.1042247,30.3947368 57.1428571,29.4206152 57.1428571,28.223917 C57.1428571,27.0262876 58.1042247,26.0526316 59.2857143,26.0526316" id="Fill-55" fill="#FF6001"></path>
                </g>
                <g id="18" transform="translate(126.000000, 5.000000)">
                    <path d="M40.5,24 C45.7465826,24 50,20.1943107 50,15.5 C50,10.8045983 45.7465826,7 40.5,7 C35.2534174,7 31,10.8045983 31,15.5 C31,20.1943107 35.2534174,24 40.5,24 M40.5,21.6922571 C36.6834168,21.6922571 33.5792421,18.9145649 33.5792421,15.5 C33.5792421,12.0851624 36.6834168,9.30665191 40.5,9.30665191 C44.3162784,9.30665191 47.4207579,12.0851624 47.4207579,15.5 C47.4207579,18.9145649 44.3162784,21.6922571 40.5,21.6922571" id="Fill-180" fill="#FF6001"></path>
                    <path d="M43,14.5 C43,15.8800626 41.6572133,17 40,17 C38.3425021,17 37,15.8800626 37,14.5 C37,13.1189889 38.3425021,12 40,12 C41.6572133,12 43,13.1189889 43,14.5" id="Fill-181" fill="#FECD2B"></path>
                    <path d="M40.5001565,22.8007151 C35.0411051,22.8007151 30.5995618,26.7027893 30.5995618,31.5001375 C30.5995618,36.2972107 35.0411051,40.2003851 40.5001565,40.2003851 C45.9588949,40.2003851 50.4004382,36.2972107 50.4004382,31.5001375 C50.4004382,26.7027893 45.9588949,22.8007151 40.5001565,22.8007151 M40.5001565,46 C31.4014245,46 24,39.4957178 24,31.5001375 C24,23.5053824 31.4014245,17 40.5001565,17 C49.5973235,17 57,23.5053824 57,31.5001375 C57,39.4957178 49.5973235,46 40.5001565,46" id="Fill-182" fill="#2BE3AD"></path>
                    <polygon id="Fill-183" fill="#FF6001" points="0 44 20 44 20 39 0 39"></polygon>
                    <polygon id="Fill-184" fill="#4A66F8" points="6 38 12 38 12 12 6 12"></polygon>
                    <path d="M8.99914643,0 L5.99943096,0 C5.99943096,3.31357299 3.31439681,6 0,6 L0,12 C6.62737102,12 12,6.62799962 12,0 L8.99914643,0 Z" id="Fill-185" fill="#2BE3AD"></path>
                    <path d="M40.5001565,29 C49.6120337,29 57,22.5073313 57,14.5 C57,6.4915685 49.6120337,0 40.5001565,0 C31.3867143,0 24,6.4915685 24,14.5 C24,22.5073313 31.3867143,29 40.5001565,29 M40.5001565,26.6728599 C32.8611778,26.6728599 26.6481501,21.2127032 26.6481501,14.5 C26.6481501,7.78839697 32.8611778,2.32603995 40.5001565,2.32603995 C48.1375703,2.32603995 54.3521629,7.78839697 54.3521629,14.5 C54.3521629,21.2127032 48.1375703,26.6728599 40.5001565,26.6728599" id="Fill-186" fill="#4A66F8"></path>
                </g>
            </g>
            <g id="Group" transform="translate(0.000000, 116.000000)">
                <g id="MainLogo">
                    <polygon id="Fill-15" fill="#2BE3AD" points="21.4285714 47.7631579 21.4285714 46.3157895 20 47.7631579"></polygon>
                    <polygon id="Fill-17" fill="#2BE3AD" points="0 7.23684211 0 8.68421053 1.42857143 7.23684211"></polygon>
                    <polygon id="Fill-19" fill="#2BE3AD" points="20 8.68421053 0 27.8272581 0 28.9473684 20 9.80432089"></polygon>
                    <polygon id="Fill-21" fill="#2BE3AD" points="20 13.0263158 0 32.1697884 0 33.2894737 20 14.1464262"></polygon>
                    <polygon id="Fill-23" fill="#2BE3AD" points="20 15.9210526 0 35.0641237 0 36.1842105 20 17.0411395"></polygon>
                    <polygon id="Fill-25" fill="#2BE3AD" points="20 20.2631579 0 39.4062054 0 40.5263158 20 21.3832683"></polygon>
                    <polygon id="Fill-27" fill="#2BE3AD" points="20 24.6052632 0 43.7487358 0 44.8684211 20 25.7253735"></polygon>
                    <polygon id="Fill-29" fill="#2BE3AD" points="20 28.9473684 1.42857143 46.3157895 2.62438493 46.3157895 20 30.0658441"></polygon>
                    <polygon id="Fill-31" fill="#2BE3AD" points="21.4285714 33.2894737 7.14285714 47.7631579 8.33344634 47.7631579 21.4285714 34.4957667"></polygon>
                    <polygon id="Fill-33" fill="#2BE3AD" points="20 37.6315789 10 47.7631579 11.1816428 47.7631579 20 38.8292242"></polygon>
                    <polygon id="Fill-35" fill="#2BE3AD" points="15.7355321 46.3157895 21.4285714 41.7014313 21.4285714 40.5263158 14.2857143 46.3157895"></polygon>
                    <polygon id="Fill-37" fill="#2BE3AD" points="5.69102554 7.23684211 0 11.8495681 0 13.0263158 7.14285714 7.23684211"></polygon>
                    <polygon id="Fill-39" fill="#2BE3AD" points="19.5986896 46.3157895 20 45.9095938 20 44.8684211 18.5714286 46.3157895"></polygon>
                    <polygon id="Fill-41" fill="#2BE3AD" points="0.396237507 7.23684211 0 7.63829326 0 8.68421053 1.42857143 7.23684211"></polygon>
                    <polygon id="Fill-43" fill="#2BE3AD" points="17.3754689 7.23684211 0 23.4866507 0 24.6052632 18.5714286 7.23684211"></polygon>
                    <polygon id="Fill-45" fill="#2BE3AD" points="13.0944843 7.23684211 0 20.5031263 0 21.7105263 14.2857143 7.23684211"></polygon>
                    <polygon id="Fill-47" fill="#2BE3AD" points="8.81745533 7.23684211 0 16.1699449 0 17.3684211 10 7.23684211"></polygon>
                    <polygon id="Fill-49" fill="#2BE3AD" points="25.7891082 55 22.8571429 54.3616786 35.6390112 0 38.5714286 0.637886598"></polygon>
                    <path d="M60,14.4736842 C52.8993684,14.4736842 47.1428571,19.9814852 47.1428571,26.7763158 C47.1428571,33.5711464 52.8993684,39.0789474 60,39.0789474 C67.1006316,39.0789474 72.8571429,33.5711464 72.8571429,26.7763158 C72.8571429,19.9814852 67.1006316,14.4736842 60,14.4736842 M60,16.5240495 C65.9076961,16.5240495 70.7139028,21.1234107 70.7139028,26.7763158 C70.7139028,32.4292209 65.9076961,37.0285821 60,37.0285821 C54.0923039,37.0285821 49.2856377,32.4292209 49.2856377,26.7763158 C49.2856377,21.1234107 54.0923039,16.5240495 60,16.5240495" id="Fill-51" fill="#FECD2B"></path>
                    <path d="M58.5711988,5.78947368 C46.7364642,5.78947368 37.1428571,14.8617577 37.1428571,26.0528488 C37.1428571,37.2435055 46.7364642,46.3157895 58.5711988,46.3157895 C70.4059335,46.3157895 80,37.2435055 80,26.0528488 C80,14.8617577 70.4059335,5.78947368 58.5711988,5.78947368 M58.5711988,7.81572429 C69.2056412,7.81572429 77.8572118,15.9967709 77.8572118,26.0528488 C77.8572118,36.1084923 69.2056412,44.2895389 58.5711988,44.2895389 C47.9367564,44.2895389 39.2856454,36.1084923 39.2856454,26.0528488 C39.2856454,15.9967709 47.9367564,7.81572429 58.5711988,7.81572429" id="Fill-53" fill="#4A66F8"></path>
                    <path d="M58.5714286,23.1578947 C56.2047731,23.1578947 54.2857143,25.1022044 54.2857143,27.5004656 C54.2857143,29.8987268 56.2047731,31.8421053 58.5714286,31.8421053 C60.938084,31.8421053 62.8571429,29.8987268 62.8571429,27.5004656 C62.8571429,25.1022044 60.938084,23.1578947 58.5714286,23.1578947 M59.2857143,26.0526316 C60.4672038,26.0526316 61.4285714,27.0262876 61.4285714,28.223917 C61.4285714,29.4206152 60.4672038,30.3947368 59.2857143,30.3947368 C58.1042247,30.3947368 57.1428571,29.4206152 57.1428571,28.223917 C57.1428571,27.0262876 58.1042247,26.0526316 59.2857143,26.0526316" id="Fill-55" fill="#FF6001"></path>
                </g>
                <g id="18" transform="translate(126.000000, 5.000000)">
                    <path d="M40.5,24 C45.7465826,24 50,20.1943107 50,15.5 C50,10.8045983 45.7465826,7 40.5,7 C35.2534174,7 31,10.8045983 31,15.5 C31,20.1943107 35.2534174,24 40.5,24 M40.5,21.6922571 C36.6834168,21.6922571 33.5792421,18.9145649 33.5792421,15.5 C33.5792421,12.0851624 36.6834168,9.30665191 40.5,9.30665191 C44.3162784,9.30665191 47.4207579,12.0851624 47.4207579,15.5 C47.4207579,18.9145649 44.3162784,21.6922571 40.5,21.6922571" id="Fill-180" fill="#FF6001"></path>
                    <path d="M43,14.5 C43,15.8800626 41.6572133,17 40,17 C38.3425021,17 37,15.8800626 37,14.5 C37,13.1189889 38.3425021,12 40,12 C41.6572133,12 43,13.1189889 43,14.5" id="Fill-181" fill="#FECD2B"></path>
                    <path d="M40.5001565,22.8007151 C35.0411051,22.8007151 30.5995618,26.7027893 30.5995618,31.5001375 C30.5995618,36.2972107 35.0411051,40.2003851 40.5001565,40.2003851 C45.9588949,40.2003851 50.4004382,36.2972107 50.4004382,31.5001375 C50.4004382,26.7027893 45.9588949,22.8007151 40.5001565,22.8007151 M40.5001565,46 C31.4014245,46 24,39.4957178 24,31.5001375 C24,23.5053824 31.4014245,17 40.5001565,17 C49.5973235,17 57,23.5053824 57,31.5001375 C57,39.4957178 49.5973235,46 40.5001565,46" id="Fill-182" fill="#2BE3AD"></path>
                    <polygon id="Fill-183" fill="#FF6001" points="0 44 20 44 20 39 0 39"></polygon>
                    <polygon id="Fill-184" fill="#4A66F8" points="6 38 12 38 12 12 6 12"></polygon>
                    <path d="M8.99914643,0 L5.99943096,0 C5.99943096,3.31357299 3.31439681,6 0,6 L0,12 C6.62737102,12 12,6.62799962 12,0 L8.99914643,0 Z" id="Fill-185" fill="#2BE3AD"></path>
                    <path d="M40.5001565,29 C49.6120337,29 57,22.5073313 57,14.5 C57,6.4915685 49.6120337,0 40.5001565,0 C31.3867143,0 24,6.4915685 24,14.5 C24,22.5073313 31.3867143,29 40.5001565,29 M40.5001565,26.6728599 C32.8611778,26.6728599 26.6481501,21.2127032 26.6481501,14.5 C26.6481501,7.78839697 32.8611778,2.32603995 40.5001565,2.32603995 C48.1375703,2.32603995 54.3521629,7.78839697 54.3521629,14.5 C54.3521629,21.2127032 48.1375703,26.6728599 40.5001565,26.6728599" id="Fill-186" fill="#4A66F8"></path>
                </g>
            </g>
        </g>
    </g>
</svg>